<?xml version="1.0" encoding="UTF-8"?>
<svg version="1.1" xmlns="http://www.w3.org/2000/svg" width="869" height="869">
<path d="M0 0 C1.39150112 1.12573694 2.76815053 2.2702303 4.125 3.4375 C7.22623942 5.90950244 8.99692603 6.30477074 12.9375 5.875 C14.06478516 5.65457031 14.06478516 5.65457031 15.21484375 5.4296875 C66.13027069 -2.42542746 127.52200377 34.89779286 166.48046875 63.234375 C179.34812642 72.72544496 192.67481548 82.67481548 204 94 C205.83907561 94.21374757 207.67912546 94.42127318 209.52246094 94.59448242 C230.96111479 96.63549712 247.52067794 105.82843745 261.5703125 121.94921875 C271.4435551 134.48321656 276.30601523 147.74482237 280 163 C280.309375 164.20785156 280.61875 165.41570312 280.9375 166.66015625 C285.66144923 186.44169365 285.42096735 207.4842019 275.51171875 225.7421875 C274.6620745 231.15137303 277.67061496 234.95841209 280.3125 239.5625 C281.44468735 241.63220812 282.57089066 243.70519974 283.69140625 245.78125 C284.2548877 246.82410156 284.81836914 247.86695313 285.39892578 248.94140625 C289.47044748 256.71939099 292.75987093 264.84840463 296 273 C296.50974365 274.27182129 296.50974365 274.27182129 297.02978516 275.56933594 C306.75755436 300.14230435 312.94281826 325.923172 317 352 C317.16371094 353.00305176 317.32742188 354.00610352 317.49609375 355.03955078 C322.73087377 388.21659149 328.51148171 442.62505661 308.7265625 471.62890625 C304.93717293 476.83288695 300.97338359 480.92032457 296 485 C296.54140625 486.40185547 296.54140625 486.40185547 297.09375 487.83203125 C306.07116499 512.58783636 298.18881184 532.81888789 287.578125 555.67138672 C271.36010888 589.8787555 250.06252616 623.99516715 222.5625 650.4375 C220.82934402 652.17065598 219.26793953 654.00188648 217.6875 655.875 C214.28658537 659.81369846 210.55054402 663.23239311 206.64453125 666.6640625 C204.91057428 668.1956818 203.19845792 669.75246807 201.51171875 671.3359375 C193.48473394 678.86351961 184.83132721 685.45094929 176 692 C175.39784668 692.44875488 174.79569336 692.89750977 174.17529297 693.35986328 C118.20025462 734.88973044 46.77410581 761.88453133 -23.37890625 762.203125 C-24.42118881 762.21013931 -25.46347137 762.21715363 -26.53733826 762.22438049 C-29.87910341 762.24177119 -33.22069126 762.24823213 -36.5625 762.25 C-37.70549561 762.25067474 -38.84849121 762.25134949 -40.02612305 762.25204468 C-56.88856614 762.23622098 -73.33489537 761.78703414 -90 759 C-91.62639404 758.74259033 -91.62639404 758.74259033 -93.28564453 758.47998047 C-126.43022947 753.16259114 -158.74542965 743.60680514 -189 729 C-189.68674805 728.67177246 -190.37349609 728.34354492 -191.08105469 728.00537109 C-217.69364699 715.23054902 -242.23660413 699.80919095 -265 681 C-265.95777344 680.21625 -266.91554688 679.4325 -267.90234375 678.625 C-281.50562944 667.38220908 -294.37669931 655.28627293 -306 642 C-306.94779561 640.93869396 -307.89571618 639.87749951 -308.84375 638.81640625 C-357.10157019 584.24044255 -386.06854521 514.10290418 -394 442 C-394.13636368 440.76070236 -394.13636368 440.76070236 -394.27548218 439.49636841 C-394.92661113 433.03853365 -395.04285793 426.73312819 -394.89453125 420.25 C-394.87067205 417.20703659 -394.85717645 414.16411823 -394.84350586 411.12109375 C-394.82283242 409.04007578 -394.782457 406.95916051 -394.72241211 404.87890625 C-393.87787354 392.38928558 -393.87787354 392.38928558 -398.57788086 381.359375 C-401.46737659 378.55076124 -404.71501513 376.32028805 -408 374 C-411.69843968 369.86939586 -414.2994462 364.8208233 -417 360 C-417.47953125 359.154375 -417.9590625 358.30875 -418.453125 357.4375 C-429.81557646 335.00025407 -434.45457473 305.30765376 -428 281 C-421.99513253 262.81504674 -409.81655593 247.02255905 -392.8828125 237.84765625 C-391 237 -391 237 -389 237 C-388.83419434 236.33500488 -388.66838867 235.67000977 -388.49755859 234.98486328 C-379.31225527 199.6000771 -358.67365528 166.29362112 -336 138 C-335.19949219 136.98679688 -334.39898437 135.97359375 -333.57421875 134.9296875 C-318.30735365 115.89356086 -300.84776202 97.26557895 -281 83 C-280.113125 82.3296875 -279.22625 81.659375 -278.3125 80.96875 C-272.0704052 76.36520508 -265.3188947 72.70999979 -257.91015625 70.328125 C-254.84032884 68.19368467 -253.79134727 64.88059228 -252.3125 61.5625 C-244.01226546 44.07761178 -230.72021843 33.26705095 -213 26 C-207.419507 24.11173852 -201.64771426 23.0085061 -195.8828125 21.84375 C-194.17687647 21.48137164 -192.47141851 21.11673706 -190.76638794 20.75012207 C-186.96510442 19.93578748 -183.16149279 19.13367045 -179.3560791 18.33886719 C-172.43160491 16.88738609 -165.5198037 15.37949987 -158.60839844 13.8671875 C-156.04825386 13.30738244 -153.4880933 12.74765046 -150.92791748 12.18798828 C-149.95990656 11.97635324 -149.95990656 11.97635324 -148.97233987 11.76044273 C-141.69066302 10.16927216 -134.40601467 8.59186507 -127.12109375 7.015625 C-126.45694128 6.8719109 -125.7927888 6.72819679 -125.10851049 6.58012772 C-122.40978713 5.99616885 -119.71106094 5.41222309 -117.01231694 4.8283596 C-111.48725849 3.63289398 -105.9627011 2.4351253 -100.43825138 1.23685026 C-94.3836394 -0.07635817 -88.32867923 -1.38795431 -82.27356339 -2.69883728 C-79.72737853 -3.25022778 -77.18128303 -3.80203105 -74.63528061 -4.35426331 C-71.11115727 -5.11842722 -67.58664119 -5.88075258 -64.06201172 -6.64257812 C-63.02433655 -6.86796265 -61.98666138 -7.09334717 -60.9175415 -7.32556152 C-39.48114223 -11.9501523 -19.3244422 -11.70918053 0 0 Z M-70.5703125 21.40625 C-73.17665232 21.97124627 -75.78321253 22.53511068 -78.3901062 23.09753418 C-84.55066453 24.42924503 -90.70789434 25.77572919 -96.86405361 27.12761259 C-103.73285561 28.63520218 -110.60533727 30.12565306 -117.47814798 31.61484146 C-129.87147855 34.30058451 -142.25962545 37.00912785 -154.64473343 39.73257446 C-161.02669857 41.13431382 -167.41123505 42.52213934 -173.80187416 43.88379669 C-177.15840446 44.59956707 -180.51318545 45.32330708 -183.86770248 46.04844666 C-185.32928918 46.36214465 -186.79171075 46.67198645 -188.25506973 46.97731018 C-204.0104229 50.26664058 -216.71372831 54.897526 -226.375 68.375 C-231.30000696 76.39732011 -233.59385451 84.6383464 -234 94 C-234.97839844 94.02578125 -235.95679688 94.0515625 -236.96484375 94.078125 C-251.19552376 94.6938083 -258.96193618 99.07461223 -270 108 C-270.5269043 108.42249023 -271.05380859 108.84498047 -271.59667969 109.28027344 C-286.40993778 121.26171692 -300.42161287 134.85432811 -312 150 C-313.07065115 151.33385289 -314.14379197 152.66570935 -315.21875 153.99609375 C-323.65559245 164.51772926 -331.09690397 175.41881467 -338 187 C-338.40025391 187.66676758 -338.80050781 188.33353516 -339.21289062 189.02050781 C-341.9463289 193.60961074 -344.52003227 198.26938373 -347 203 C-347.42635742 203.8132373 -347.85271484 204.62647461 -348.29199219 205.46435547 C-353.02889927 214.63294777 -357.45484428 223.71101048 -360.359375 233.640625 C-366.56234444 254.63410755 -366.56234444 254.63410755 -371.8671875 258.3359375 C-374.5661812 259.77257021 -377.31735037 260.79805375 -380.21875 261.75 C-389.79601285 264.91603731 -395.4909561 273.38011349 -400 282 C-405.1301325 293.72601714 -405.89793212 304.0814291 -403.3125 316.5 C-403.13315918 317.37003662 -402.95381836 318.24007324 -402.76904297 319.13647461 C-400.1422568 331.45445862 -396.93131455 343.32397525 -390 354 C-389.59652344 354.63035156 -389.19304687 355.26070313 -388.77734375 355.91015625 C-384.10722191 362.17983052 -376.7068001 366.20807841 -370 370 C-369.34 370 -368.68 370 -368 370 C-368.06928711 370.60376465 -368.13857422 371.2075293 -368.20996094 371.82958984 C-369.29611544 382.73945134 -369.24367599 393.67106463 -369.25 404.625 C-369.25067474 405.67456879 -369.25134949 406.72413757 -369.25204468 407.80551147 C-369.23577176 423.74826016 -368.70250374 439.25429039 -366 455 C-365.74259033 456.57104492 -365.74259033 456.57104492 -365.47998047 458.17382812 C-359.4809308 494.17884832 -347.57425385 527.60306944 -331 560 C-330.55011719 560.88300781 -330.10023438 561.76601563 -329.63671875 562.67578125 C-320.1795802 581.01962777 -308.17126865 598.13741798 -295 614 C-294.32662598 614.82564453 -294.32662598 614.82564453 -293.63964844 615.66796875 C-286.37540945 624.54140673 -278.45524462 632.74998092 -270.375 640.875 C-269.89389771 641.36136932 -269.41279541 641.84773865 -268.91711426 642.34884644 C-262.29191493 649.03010774 -255.36359384 655.14150199 -248 661 C-246.81431094 661.98812503 -245.63150889 662.97973702 -244.453125 663.9765625 C-191.92442335 707.73697424 -119.07376278 735.8642523 -50.55859375 736.203125 C-49.60108215 736.21013931 -48.64357056 736.21715363 -47.65704346 736.22438049 C-44.58381381 736.24178089 -41.5107771 736.24823304 -38.4375 736.25 C-37.38543365 736.25067474 -36.33336731 736.25134949 -35.24942017 736.25204468 C-19.28802082 736.23578374 -3.76410161 735.70566044 12 733 C13.57104492 732.74259033 13.57104492 732.74259033 15.17382812 732.47998047 C71.70328406 723.06121019 124.15283991 699.59852396 169 664 C169.92167969 663.27296875 170.84335937 662.5459375 171.79296875 661.796875 C188.96123072 648.0226273 205.48759402 632.3941517 219 615 C219.90037875 613.90875445 220.80425103 612.82038531 221.7109375 611.734375 C242.17486675 587.05086807 277.41326238 541.23339794 275.45703125 507.75 C273.52228743 496.10846455 266.6767963 489.34190456 258 482 C256.51755282 480.73299497 255.03827352 479.4622721 253.5625 478.1875 C252.90378906 477.62417969 252.24507812 477.06085938 251.56640625 476.48046875 C250 475 250 475 249 473 C250.68222656 472.83951172 250.68222656 472.83951172 252.3984375 472.67578125 C257.32555926 472.05636546 261.90584965 470.69687904 266.625 469.1875 C267.44484375 468.93935547 268.2646875 468.69121094 269.109375 468.43554688 C275.73281243 466.34309437 281.01484505 463.52171327 285.6875 458.25 C286.24824219 457.63640625 286.80898438 457.0228125 287.38671875 456.390625 C291.55705288 450.21085626 292.58050444 443.61223477 293.16796875 436.3515625 C293.24734177 435.44080963 293.32671478 434.53005676 293.40849304 433.59170532 C294.22028941 423.52409297 294.35394327 413.4704248 294.3125 403.375 C294.31034485 402.41955292 294.3081897 401.46410583 294.30596924 400.47970581 C294.09734136 342.52758366 278.49523558 281.93424132 246.75585938 232.91967773 C243.98998366 228.54989727 243.98998366 228.54989727 244.0390625 225.85546875 C245.25781766 223.50218136 246.70757072 221.48512115 248.3125 219.375 C256.00847445 208.54070811 259.23889465 195.92189126 257.375 182.625 C256.94735725 180.41051874 256.48635845 178.20233081 256 176 C255.86287598 175.33178223 255.72575195 174.66356445 255.58447266 173.97509766 C251.87314631 155.89628374 245.78488898 139.47551963 230.15625 128.359375 C222.31464773 123.41575618 215.02692151 120.84237348 205.67871094 120.87646484 C194.52928748 120.87022217 194.52928748 120.87022217 190.19921875 118.40625 C188.25286748 116.37798816 186.63858135 114.28083937 185 112 C183.82645237 110.87907783 182.61621163 109.79550191 181.375 108.75 C178.91803225 106.64470655 176.47261762 104.53269031 174.05078125 102.38671875 C135.18057536 68.13687887 84.90058169 39.38789523 33 32 C31.76121094 31.81695312 30.52242188 31.63390625 29.24609375 31.4453125 C22.08914874 30.63258873 16.69153113 31.44926784 10 34 C8.29348402 34.56798965 6.58521517 35.13074771 4.875 35.6875 C3.58280836 36.12344701 2.29093133 36.56033498 1 37 C0.32195312 36.20335938 -0.35609375 35.40671875 -1.0546875 34.5859375 C-9.81638639 24.51656973 -18.93142414 17.2569701 -32.64108276 15.70007324 C-45.5813597 15.23710495 -58.018741 18.63263553 -70.5703125 21.40625 Z " fill="#FFFFFF" transform="translate(474,32)"/>
<path d="M0 0 C7 0 7 0 9.0390625 1.87109375 C9.56242188 2.71800781 10.08578125 3.56492187 10.625 4.4375 C11.48544922 5.79488281 11.48544922 5.79488281 12.36328125 7.1796875 C14.29778739 10.51313244 16.19245013 13.85837585 17.95703125 17.28515625 C18.89445609 19.1688102 18.89445609 19.1688102 21 20 C21.24492187 19.33613281 21.48984375 18.67226563 21.7421875 17.98828125 C23.31736509 14.24601151 25.14557951 10.72944249 27.125 7.1875 C27.47820312 6.49462891 27.83140625 5.80175781 28.1953125 5.08789062 C28.7521875 4.1065918 28.7521875 4.1065918 29.3203125 3.10546875 C29.80395264 2.21057739 29.80395264 2.21057739 30.29736328 1.29760742 C32 0 32 0 40 0 C40 11.55 40 23.1 40 35 C37.36 35 34.72 35 32 35 C31.67 29.06 31.34 23.12 31 17 C28.24247393 21.92506443 28.24247393 21.92506443 25.52661133 26.87304688 C22.6947224 31.75984905 22.6947224 31.75984905 19.46875 32.875 C15.75646783 31.55925442 14.48920093 28.78589059 12.6875 25.5 C11.470625 23.355 10.25375 21.21 9 19 C8.67 24.28 8.34 29.56 8 35 C5.36 35 2.72 35 0 35 C0 23.45 0 11.9 0 0 Z " fill="#FFFFFF" transform="translate(136,328)"/>
<path d="M0 0 C0.95003906 0.00644531 1.90007813 0.01289063 2.87890625 0.01953125 C5.4375 0.1875 5.4375 0.1875 8.4375 1.1875 C9.83189664 1.25415376 11.22919875 1.27288199 12.625 1.25 C13.883125 1.229375 15.14125 1.20875 16.4375 1.1875 C16.52505672 5.54153865 16.57807969 9.89534877 16.625 14.25 C16.65013672 15.47912109 16.67527344 16.70824219 16.70117188 17.97460938 C16.76116295 25.39350568 16.720878 31.0832775 11.9375 37.0625 C8.4812654 39.65467595 4.77219085 39.38450076 0.625 39.4375 C-1.17904297 39.47617187 -1.17904297 39.47617187 -3.01953125 39.515625 C-6.85238045 39.1606533 -9.25965027 38.10952587 -12.5625 36.1875 C-11.9025 34.2075 -11.2425 32.2275 -10.5625 30.1875 C-6.5625 30.1875 -6.5625 30.1875 -4.5625 31.1875 C-3.06600638 31.30755453 -1.56375207 31.36281451 -0.0625 31.375 C0.7315625 31.38917969 1.525625 31.40335937 2.34375 31.41796875 C4.65783317 31.38416303 4.65783317 31.38416303 6.4375 29.1875 C6.4375 28.1975 6.4375 27.2075 6.4375 26.1875 C5.7775 26.5175 5.1175 26.8475 4.4375 27.1875 C-0.1095877 27.60599303 -4.23615093 27.72368367 -8.5 26 C-11.76922585 23.12704395 -13.32966425 21.04734655 -13.8828125 16.62890625 C-14.07348362 11.94475245 -13.904066 8.88283079 -11.8125 4.625 C-8.13349535 0.63941162 -5.36979781 -0.08036432 0 0 Z M-4 9.375 C-5.78779278 12.03397339 -5.78779278 12.03397339 -5.5 14.8125 C-4.46987836 17.42214149 -3.91305139 18.64748357 -1.5625 20.1875 C1.55561483 20.57726435 3.54769567 20.69172245 6.3125 19.125 C8.08023274 16.0805714 7.80573916 13.6243988 7.4375 10.1875 C6.45701062 8.12347315 6.45701062 8.12347315 4.4375 7.1875 C0.43340435 6.5059518 -0.94021572 6.62903975 -4 9.375 Z " fill="#FFFFFF" transform="translate(589.5625,334.8125)"/>
<path d="M0 0 C1.67163195 0.65411685 3.34015202 1.31653318 5 2 C5.60199219 1.69578125 6.20398438 1.3915625 6.82421875 1.078125 C10.68491304 -0.83489407 14.79658254 -0.5713383 19 0 C21.93423195 1.79646854 23.47205355 2.9441071 25 6 C25.08426094 7.6674606 25.10725143 9.33825187 25.09765625 11.0078125 C25.09443359 11.99394531 25.09121094 12.98007812 25.08789062 13.99609375 C25.07532227 15.54490234 25.07532227 15.54490234 25.0625 17.125 C25.05798828 18.16527344 25.05347656 19.20554687 25.04882812 20.27734375 C25.03701952 22.85161962 25.02055075 25.42578146 25 28 C22.36 28 19.72 28 17 28 C16.95101562 26.80761719 16.90203125 25.61523438 16.8515625 24.38671875 C16.77652396 22.82028932 16.7009766 21.25388421 16.625 19.6875 C16.5940625 18.90181641 16.563125 18.11613281 16.53125 17.30664062 C16.47324219 16.1706543 16.47324219 16.1706543 16.4140625 15.01171875 C16.3826416 14.31522217 16.3512207 13.61872559 16.31884766 12.90112305 C16.07881747 10.67467261 16.07881747 10.67467261 14 8 C10.91634129 7.7497843 10.91634129 7.7497843 8 8 C7.01857619 12.24733832 6.69079621 16.47324533 6.4375 20.8125 C6.39431641 21.50537109 6.35113281 22.19824219 6.30664062 22.91210938 C6.20138547 24.60788686 6.10027137 26.30392052 6 28 C3.36 28 0.72 28 -2 28 C-2.04898437 26.80761719 -2.09796875 25.61523438 -2.1484375 24.38671875 C-2.22347604 22.82028932 -2.2990234 21.25388421 -2.375 19.6875 C-2.4059375 18.90181641 -2.436875 18.11613281 -2.46875 17.30664062 C-2.50742187 16.54931641 -2.54609375 15.79199219 -2.5859375 15.01171875 C-2.63306885 13.96697388 -2.63306885 13.96697388 -2.68115234 12.90112305 C-2.92118253 10.67467261 -2.92118253 10.67467261 -5 8 C-7.44480079 8.18828772 -7.44480079 8.18828772 -10 9 C-12.53680037 12.52333385 -12.43509519 16.56418139 -12.625 20.75 C-12.68300781 21.79607422 -12.68300781 21.79607422 -12.7421875 22.86328125 C-12.83598624 24.57510818 -12.91906174 26.28751682 -13 28 C-15.64 28 -18.28 28 -21 28 C-21 19.09 -21 10.18 -21 1 C-18.03 1 -15.06 1 -12 1 C-8.34379034 -0.82810483 -4.00912218 -0.28500869 0 0 Z " fill="#FFFFFF" transform="translate(356,395)"/>
<path d="M0 0 C4.03559479 2.21782253 6.54031906 4.62095717 8 9 C8.1447963 10.95475009 8.22067502 12.9151138 8.25 14.875 C8.27578125 15.90367187 8.3015625 16.93234375 8.328125 17.9921875 C7.85695516 22.31124435 6.18714384 24.92415089 3 27.8125 C-1.56847965 29.62085653 -6.14207935 29.40678241 -11 29 C-11.66 28.67 -12.32 28.34 -13 28 C-13.33 31.3 -13.66 34.6 -14 38 C-16.64 38 -19.28 38 -22 38 C-22 25.79 -22 13.58 -22 1 C-19.03 1 -16.06 1 -13 1 C-9.00247674 -0.99876163 -4.33428575 -0.64388289 0 0 Z M-11.8125 8.125 C-13.51056927 10.806162 -13.8733144 12.83285993 -14 16 C-12.86220128 18.32731556 -11.83159286 20.16840714 -10 22 C-5.89569724 22.38910922 -5.89569724 22.38910922 -2.1875 20.875 C-0.48943073 18.193838 -0.1266856 16.16714007 0 13 C-1.13779872 10.67268444 -2.16840714 8.83159286 -4 7 C-8.10430276 6.61089078 -8.10430276 6.61089078 -11.8125 8.125 Z " fill="#FFFFFF" transform="translate(335,455)"/>
<path d="M0 0 C4.03559479 2.21782253 6.54031906 4.62095717 8 9 C8.1447963 10.95475009 8.22067502 12.9151138 8.25 14.875 C8.27578125 15.90367187 8.3015625 16.93234375 8.328125 17.9921875 C7.85695516 22.31124435 6.18714384 24.92415089 3 27.8125 C-1.56847965 29.62085653 -6.14207935 29.40678241 -11 29 C-11.66 28.67 -12.32 28.34 -13 28 C-13.33 31.3 -13.66 34.6 -14 38 C-16.64 38 -19.28 38 -22 38 C-22 25.79 -22 13.58 -22 1 C-19.03 1 -16.06 1 -13 1 C-9.00247674 -0.99876163 -4.33428575 -0.64388289 0 0 Z M-11.8125 8.125 C-13.51056927 10.806162 -13.8733144 12.83285993 -14 16 C-12.86220128 18.32731556 -11.83159286 20.16840714 -10 22 C-5.89569724 22.38910922 -5.89569724 22.38910922 -2.1875 20.875 C-0.48943073 18.193838 -0.1266856 16.16714007 0 13 C-1.13779872 10.67268444 -2.16840714 8.83159286 -4 7 C-8.10430276 6.61089078 -8.10430276 6.61089078 -11.8125 8.125 Z " fill="#FFFFFF" transform="translate(246,455)"/>
<path d="M0 0 C4.03559479 2.21782253 6.54031906 4.62095717 8 9 C8.1447963 10.95475009 8.22067502 12.9151138 8.25 14.875 C8.27578125 15.90367187 8.3015625 16.93234375 8.328125 17.9921875 C7.85695516 22.31124435 6.18714384 24.92415089 3 27.8125 C-1.56847965 29.62085653 -6.14207935 29.40678241 -11 29 C-11.66 28.67 -12.32 28.34 -13 28 C-13.33 31.3 -13.66 34.6 -14 38 C-16.64 38 -19.28 38 -22 38 C-22 25.79 -22 13.58 -22 1 C-19.03 1 -16.06 1 -13 1 C-9.00247674 -0.99876163 -4.33428575 -0.64388289 0 0 Z M-11.8125 8.125 C-13.51056927 10.806162 -13.8733144 12.83285993 -14 16 C-12.86220128 18.32731556 -11.83159286 20.16840714 -10 22 C-5.89569724 22.38910922 -5.89569724 22.38910922 -2.1875 20.875 C-0.48943073 18.193838 -0.1266856 16.16714007 0 13 C-1.13779872 10.67268444 -2.16840714 8.83159286 -4 7 C-8.10430276 6.61089078 -8.10430276 6.61089078 -11.8125 8.125 Z " fill="#FFFFFF" transform="translate(534,335)"/>
<path d="M0 0 C4.03559479 2.21782253 6.54031906 4.62095717 8 9 C8.1447963 10.95475009 8.22067502 12.9151138 8.25 14.875 C8.27578125 15.90367187 8.3015625 16.93234375 8.328125 17.9921875 C7.85695516 22.31124435 6.18714384 24.92415089 3 27.8125 C-1.56847965 29.62085653 -6.14207935 29.40678241 -11 29 C-11.66 28.67 -12.32 28.34 -13 28 C-13.33 31.3 -13.66 34.6 -14 38 C-16.64 38 -19.28 38 -22 38 C-22 25.79 -22 13.58 -22 1 C-19.03 1 -16.06 1 -13 1 C-9.00247674 -0.99876163 -4.33428575 -0.64388289 0 0 Z M-11.8125 8.125 C-13.51056927 10.806162 -13.8733144 12.83285993 -14 16 C-12.86220128 18.32731556 -11.83159286 20.16840714 -10 22 C-5.89569724 22.38910922 -5.89569724 22.38910922 -2.1875 20.875 C-0.48943073 18.193838 -0.1266856 16.16714007 0 13 C-1.13779872 10.67268444 -2.16840714 8.83159286 -4 7 C-8.10430276 6.61089078 -8.10430276 6.61089078 -11.8125 8.125 Z " fill="#FFFFFF" transform="translate(283,335)"/>
<path d="M0 0 C2.64 0 5.28 0 8 0 C8.33 3.3 8.66 6.6 9 10 C9.66 9.67 10.32 9.34 11 9 C15.58819366 8.39889337 20.09473018 7.95292998 24.24609375 10.234375 C27.19259171 12.70918826 28.76643722 14.29931165 30 18 C30.38936949 22.83716712 30.64769377 27.39781015 28.8125 31.9375 C27.9153125 32.9584375 27.9153125 32.9584375 27 34 C26.34 34.763125 25.68 35.52625 25 36.3125 C20.48869318 38.85011009 16.06947886 38.47869692 11 38 C10.01 37.67 9.02 37.34 8 37 C5.36 37 2.72 37 0 37 C0 24.79 0 12.58 0 0 Z M10.1875 17.125 C8.48943073 19.806162 8.1266856 21.83285993 8 25 C9.13779872 27.32731556 10.16840714 29.16840714 12 31 C16.10430276 31.38910922 16.10430276 31.38910922 19.8125 29.875 C21.51056927 27.193838 21.8733144 25.16714007 22 22 C20.86220128 19.67268444 19.83159286 17.83159286 18 16 C13.89569724 15.61089078 13.89569724 15.61089078 10.1875 17.125 Z " fill="#FFFFFF" transform="translate(407,446)"/>
<path d="M0 0 C2.64 0 5.28 0 8 0 C8 12.21 8 24.42 8 37 C5.03 37 2.06 37 -1 37 C-1.33 37.33 -1.66 37.66 -2 38 C-6.83126346 38.42151963 -11.43006366 38.58872613 -16 36.875 C-19.33808614 33.74554425 -20.78655494 30.96486413 -21.28515625 26.375 C-21.45595698 20.90937655 -21.31395445 16.57097166 -18 12 C-14.10349436 8.45772214 -10.2158533 8.70676126 -5.20703125 8.796875 C-3 9 -3 9 -1 10 C-0.67 6.7 -0.34 3.4 0 0 Z M-10.75 17.125 C-12.53025526 19.79538289 -12.87201588 21.80039696 -13 25 C-11.86220128 27.32731556 -10.83159286 29.16840714 -9 31 C-5.51944126 30.82432642 -5.51944126 30.82432642 -2 30 C0.48038907 26.2794164 0.46337203 24.40203429 0 20 C-1.54285631 17.45668762 -1.54285631 17.45668762 -4 16 C-6.88219726 15.50791754 -8.28153087 15.53812699 -10.75 17.125 Z " fill="#FFFFFF" transform="translate(679,326)"/>
<path d="M0 0 C2.97 0 5.94 0 9 0 C9.81917642 1.72601379 10.63006016 3.4559647 11.4375 5.1875 C12.11619141 6.63189453 12.11619141 6.63189453 12.80859375 8.10546875 C13.90381422 10.76631586 14.54954796 13.16784755 15 16 C15.66 16 16.32 16 17 16 C17.18175781 15.34773438 17.36351562 14.69546875 17.55078125 14.0234375 C18.97466596 9.07269989 20.49407234 4.53453577 23 0 C25.64 0 28.28 0 31 0 C28.95944998 7.30076729 26.43374158 14.29976806 23.5625 21.3125 C23.18029297 22.27478516 22.79808594 23.23707031 22.40429688 24.22851562 C17.76123832 35.61938084 17.76123832 35.61938084 13 38 C11.35744209 38.12114921 9.70947522 38.17540767 8.0625 38.1875 C6.74958984 38.20876953 6.74958984 38.20876953 5.41015625 38.23046875 C3 38 3 38 0 36 C0.99 33.03 0.99 33.03 2 30 C4.64 30 7.28 30 10 30 C9.50168029 23.44936086 7.11810613 18.13573627 4.4375 12.1875 C3.59976659 10.3073669 2.76497457 8.42591953 1.93359375 6.54296875 C1.56290771 5.71821045 1.19222168 4.89345215 0.81030273 4.04370117 C0 2 0 2 0 0 Z " fill="#FFFFFF" transform="translate(213,336)"/>
<path d="M0 0 C4.08327212 2.22218891 6.52646147 4.57938442 8 9 C8 11.64 8 14.28 8 17 C1.73 17.33 -4.54 17.66 -11 18 C-8.2901852 21.35123544 -8.2901852 21.35123544 -4.5 21.3125 C-0.8887493 21.27142087 -0.8887493 21.27142087 2 19 C4.0625 20.75 4.0625 20.75 6 23 C6 25.125 6 25.125 5 27 C0.1693804 30.11652877 -5.47879983 29.60607552 -11 29 C-14.93436187 27.06733101 -17.98032544 24.93305046 -20 21 C-21.52109808 14.93919058 -21.2740691 10.49198687 -18 5 C-13.0778826 -0.9317825 -7.44639576 -1.43353073 0 0 Z M-12 10 C-12 10.66 -12 11.32 -12 12 C-8.04 12 -4.08 12 0 12 C-1.34196349 6.98090307 -1.34196349 6.98090307 -4.3125 5.9375 C-8.01028388 6.02349497 -9.43439936 7.43439936 -12 10 Z " fill="#FFFFFF" transform="translate(558,455)"/>
<path d="M0 0 C4.08327212 2.22218891 6.52646147 4.57938442 8 9 C8 11.64 8 14.28 8 17 C1.73 17.33 -4.54 17.66 -11 18 C-8.2901852 21.35123544 -8.2901852 21.35123544 -4.5 21.3125 C-0.8887493 21.27142087 -0.8887493 21.27142087 2 19 C4.0625 20.75 4.0625 20.75 6 23 C6 25.125 6 25.125 5 27 C0.1693804 30.11652877 -5.47879983 29.60607552 -11 29 C-14.93436187 27.06733101 -17.98032544 24.93305046 -20 21 C-21.52109808 14.93919058 -21.2740691 10.49198687 -18 5 C-13.0778826 -0.9317825 -7.44639576 -1.43353073 0 0 Z M-12 10 C-12 10.66 -12 11.32 -12 12 C-8.04 12 -4.08 12 0 12 C-1.34196349 6.98090307 -1.34196349 6.98090307 -4.3125 5.9375 C-8.01028388 6.02349497 -9.43439936 7.43439936 -12 10 Z " fill="#FFFFFF" transform="translate(506,455)"/>
<path d="M0 0 C4.08327212 2.22218891 6.52646147 4.57938442 8 9 C8 11.64 8 14.28 8 17 C1.73 17.33 -4.54 17.66 -11 18 C-8.2901852 21.35123544 -8.2901852 21.35123544 -4.5 21.3125 C-0.8887493 21.27142087 -0.8887493 21.27142087 2 19 C4.0625 20.75 4.0625 20.75 6 23 C6 25.125 6 25.125 5 27 C0.1693804 30.11652877 -5.47879983 29.60607552 -11 29 C-14.93436187 27.06733101 -17.98032544 24.93305046 -20 21 C-21.52109808 14.93919058 -21.2740691 10.49198687 -18 5 C-13.0778826 -0.9317825 -7.44639576 -1.43353073 0 0 Z M-12 10 C-12 10.66 -12 11.32 -12 12 C-8.04 12 -4.08 12 0 12 C-1.34196349 6.98090307 -1.34196349 6.98090307 -4.3125 5.9375 C-8.01028388 6.02349497 -9.43439936 7.43439936 -12 10 Z " fill="#FFFFFF" transform="translate(713,335)"/>
<path d="M0 0 C4.08327212 2.22218891 6.52646147 4.57938442 8 9 C8 11.64 8 14.28 8 17 C1.73 17.33 -4.54 17.66 -11 18 C-8.2901852 21.35123544 -8.2901852 21.35123544 -4.5 21.3125 C-0.8887493 21.27142087 -0.8887493 21.27142087 2 19 C4.0625 20.75 4.0625 20.75 6 23 C6 25.125 6 25.125 5 27 C0.1693804 30.11652877 -5.47879983 29.60607552 -11 29 C-14.93436187 27.06733101 -17.98032544 24.93305046 -20 21 C-21.52109808 14.93919058 -21.2740691 10.49198687 -18 5 C-13.0778826 -0.9317825 -7.44639576 -1.43353073 0 0 Z M-12 10 C-12 10.66 -12 11.32 -12 12 C-8.04 12 -4.08 12 0 12 C-1.34196349 6.98090307 -1.34196349 6.98090307 -4.3125 5.9375 C-8.01028388 6.02349497 -9.43439936 7.43439936 -12 10 Z " fill="#FFFFFF" transform="translate(470,335)"/>
<path d="M0 0 C4.43118719 2.13646525 7.2290203 4.37577522 9 9 C9.66198068 14.34488104 9.67332051 18.60348339 7.3125 23.5 C3.24765156 27.89443074 0.53610427 29.18657624 -5.4375 29.4375 C-10.38551157 29.29099091 -13.27283083 28.44763149 -17 25 C-20.60057274 21.03936999 -20.50330882 16.78504341 -20.3515625 11.66015625 C-19.71571586 6.8489167 -17.41661708 4.28783371 -13.9375 1.125 C-9.31242228 -0.64630636 -4.88371757 -0.64542523 0 0 Z M-9.75 8.125 C-11.53025526 10.79538289 -11.87201588 12.80039696 -12 16 C-10.86220128 18.32731556 -9.83159286 20.16840714 -8 22 C-5.25272018 22.28918735 -3.60754239 22.39056296 -1.25 20.875 C0.53025526 18.20461711 0.87201588 16.19960304 1 13 C-0.13779872 10.67268444 -1.16840714 8.83159286 -3 7 C-5.74727982 6.71081265 -7.39245761 6.60943704 -9.75 8.125 Z " fill="#FFFFFF" transform="translate(299,455)"/>
<path d="M0 0 C4.43118719 2.13646525 7.2290203 4.37577522 9 9 C9.66198068 14.34488104 9.67332051 18.60348339 7.3125 23.5 C3.24765156 27.89443074 0.53610427 29.18657624 -5.4375 29.4375 C-10.38551157 29.29099091 -13.27283083 28.44763149 -17 25 C-20.60057274 21.03936999 -20.50330882 16.78504341 -20.3515625 11.66015625 C-19.71571586 6.8489167 -17.41661708 4.28783371 -13.9375 1.125 C-9.31242228 -0.64630636 -4.88371757 -0.64542523 0 0 Z M-9.75 8.125 C-11.53025526 10.79538289 -11.87201588 12.80039696 -12 16 C-10.86220128 18.32731556 -9.83159286 20.16840714 -8 22 C-5.25272018 22.28918735 -3.60754239 22.39056296 -1.25 20.875 C0.53025526 18.20461711 0.87201588 16.19960304 1 13 C-0.13779872 10.67268444 -1.16840714 8.83159286 -3 7 C-5.74727982 6.71081265 -7.39245761 6.60943704 -9.75 8.125 Z " fill="#FFFFFF" transform="translate(570,395)"/>
<path d="M0 0 C4.43118719 2.13646525 7.2290203 4.37577522 9 9 C9.66198068 14.34488104 9.67332051 18.60348339 7.3125 23.5 C3.24765156 27.89443074 0.53610427 29.18657624 -5.4375 29.4375 C-10.38551157 29.29099091 -13.27283083 28.44763149 -17 25 C-20.60057274 21.03936999 -20.50330882 16.78504341 -20.3515625 11.66015625 C-19.71571586 6.8489167 -17.41661708 4.28783371 -13.9375 1.125 C-9.31242228 -0.64630636 -4.88371757 -0.64542523 0 0 Z M-9.75 8.125 C-11.53025526 10.79538289 -11.87201588 12.80039696 -12 16 C-10.86220128 18.32731556 -9.83159286 20.16840714 -8 22 C-5.25272018 22.28918735 -3.60754239 22.39056296 -1.25 20.875 C0.53025526 18.20461711 0.87201588 16.19960304 1 13 C-0.13779872 10.67268444 -1.16840714 8.83159286 -3 7 C-5.74727982 6.71081265 -7.39245761 6.60943704 -9.75 8.125 Z " fill="#FFFFFF" transform="translate(322,395)"/>
<path d="M0 0 C4.43118719 2.13646525 7.2290203 4.37577522 9 9 C9.66198068 14.34488104 9.67332051 18.60348339 7.3125 23.5 C3.24765156 27.89443074 0.53610427 29.18657624 -5.4375 29.4375 C-10.38551157 29.29099091 -13.27283083 28.44763149 -17 25 C-20.60057274 21.03936999 -20.50330882 16.78504341 -20.3515625 11.66015625 C-19.71571586 6.8489167 -17.41661708 4.28783371 -13.9375 1.125 C-9.31242228 -0.64630636 -4.88371757 -0.64542523 0 0 Z M-9.75 8.125 C-11.53025526 10.79538289 -11.87201588 12.80039696 -12 16 C-10.86220128 18.32731556 -9.83159286 20.16840714 -8 22 C-5.25272018 22.28918735 -3.60754239 22.39056296 -1.25 20.875 C0.53025526 18.20461711 0.87201588 16.19960304 1 13 C-0.13779872 10.67268444 -1.16840714 8.83159286 -3 7 C-5.74727982 6.71081265 -7.39245761 6.60943704 -9.75 8.125 Z " fill="#FFFFFF" transform="translate(631,335)"/>
<path d="M0 0 C4.43118719 2.13646525 7.2290203 4.37577522 9 9 C9.66198068 14.34488104 9.67332051 18.60348339 7.3125 23.5 C3.24765156 27.89443074 0.53610427 29.18657624 -5.4375 29.4375 C-10.38551157 29.29099091 -13.27283083 28.44763149 -17 25 C-20.60057274 21.03936999 -20.50330882 16.78504341 -20.3515625 11.66015625 C-19.71571586 6.8489167 -17.41661708 4.28783371 -13.9375 1.125 C-9.31242228 -0.64630636 -4.88371757 -0.64542523 0 0 Z M-9.75 8.125 C-11.53025526 10.79538289 -11.87201588 12.80039696 -12 16 C-10.86220128 18.32731556 -9.83159286 20.16840714 -8 22 C-5.25272018 22.28918735 -3.60754239 22.39056296 -1.25 20.875 C0.53025526 18.20461711 0.87201588 16.19960304 1 13 C-0.13779872 10.67268444 -1.16840714 8.83159286 -3 7 C-5.74727982 6.71081265 -7.39245761 6.60943704 -9.75 8.125 Z " fill="#FFFFFF" transform="translate(424,335)"/>
<path d="M0 0 C4.43118719 2.13646525 7.2290203 4.37577522 9 9 C9.66198068 14.34488104 9.67332051 18.60348339 7.3125 23.5 C3.24765156 27.89443074 0.53610427 29.18657624 -5.4375 29.4375 C-10.38551157 29.29099091 -13.27283083 28.44763149 -17 25 C-20.60057274 21.03936999 -20.50330882 16.78504341 -20.3515625 11.66015625 C-19.71571586 6.8489167 -17.41661708 4.28783371 -13.9375 1.125 C-9.31242228 -0.64630636 -4.88371757 -0.64542523 0 0 Z M-9.75 8.125 C-11.53025526 10.79538289 -11.87201588 12.80039696 -12 16 C-10.86220128 18.32731556 -9.83159286 20.16840714 -8 22 C-5.25272018 22.28918735 -3.60754239 22.39056296 -1.25 20.875 C0.53025526 18.20461711 0.87201588 16.19960304 1 13 C-0.13779872 10.67268444 -1.16840714 8.83159286 -3 7 C-5.74727982 6.71081265 -7.39245761 6.60943704 -9.75 8.125 Z " fill="#FFFFFF" transform="translate(335,335)"/>
<path d="M0 0 C1.010625 -0.01675781 2.02125 -0.03351563 3.0625 -0.05078125 C6.44639709 0.36770602 8.27465492 1.2921487 11 3.3125 C13.20192224 6.61538336 13.23959968 7.58712727 13.1953125 11.41796875 C13.18886719 12.40087891 13.18242188 13.38378906 13.17578125 14.39648438 C13.15902344 15.42064453 13.14226563 16.44480469 13.125 17.5 C13.11597656 18.53576172 13.10695313 19.57152344 13.09765625 20.63867188 C13.0740786 23.19684685 13.0411703 25.75455748 13 28.3125 C-5.09011622 30.19104654 -5.09011622 30.19104654 -10.125 27.875 C-12.50944868 24.61625348 -12.73610502 22.41823205 -12.4609375 18.44140625 C-12 16.3125 -12 16.3125 -10.25 13.75 C-5.26094639 11.54330321 -0.37323778 12.00398874 5 12.3125 C4.34 10.9925 3.68 9.6725 3 8.3125 C-3.08408472 8.11435739 -3.08408472 8.11435739 -9 9.3125 C-10.4606285 6.66511084 -11 5.41801666 -11 2.3125 C-7.20947276 0.56356188 -4.16690915 0.01594481 0 0 Z M-3 17.3125 C-3.38218767 18.96864657 -3.71395102 20.63707024 -4 22.3125 C-3.67 22.6425 -3.34 22.9725 -3 23.3125 C-0.66055264 23.02519945 1.6739143 22.69313221 4 22.3125 C4.33 20.6625 4.66 19.0125 5 17.3125 C2.36 17.3125 -0.28 17.3125 -3 17.3125 Z " fill="#FFFFFF" transform="translate(603,454.6875)"/>
<path d="M0 0 C1.010625 -0.01675781 2.02125 -0.03351563 3.0625 -0.05078125 C6.44639709 0.36770602 8.27465492 1.2921487 11 3.3125 C13.20192224 6.61538336 13.23959968 7.58712727 13.1953125 11.41796875 C13.18886719 12.40087891 13.18242187 13.38378906 13.17578125 14.39648438 C13.15902344 15.42064453 13.14226562 16.44480469 13.125 17.5 C13.11597656 18.53576172 13.10695313 19.57152344 13.09765625 20.63867188 C13.0740786 23.19684685 13.0411703 25.75455748 13 28.3125 C-5.09011622 30.19104654 -5.09011622 30.19104654 -10.125 27.875 C-12.50944868 24.61625348 -12.73610502 22.41823205 -12.4609375 18.44140625 C-12 16.3125 -12 16.3125 -10.25 13.75 C-5.26094639 11.54330321 -0.37323778 12.00398874 5 12.3125 C4.34 10.9925 3.68 9.6725 3 8.3125 C-3.08408472 8.11435739 -3.08408472 8.11435739 -9 9.3125 C-10.4606285 6.66511084 -11 5.41801666 -11 2.3125 C-7.20947276 0.56356188 -4.16690915 0.01594481 0 0 Z M-3 17.3125 C-3.38218767 18.96864657 -3.71395102 20.63707024 -4 22.3125 C-3.67 22.6425 -3.34 22.9725 -3 23.3125 C-0.66055264 23.02519945 1.6739143 22.69313221 4 22.3125 C4.33 20.6625 4.66 19.0125 5 17.3125 C2.36 17.3125 -0.28 17.3125 -3 17.3125 Z " fill="#FFFFFF" transform="translate(373,454.6875)"/>
<path d="M0 0 C1.010625 -0.01675781 2.02125 -0.03351563 3.0625 -0.05078125 C6.44639709 0.36770602 8.27465492 1.2921487 11 3.3125 C13.20192224 6.61538336 13.23959968 7.58712727 13.1953125 11.41796875 C13.18886719 12.40087891 13.18242187 13.38378906 13.17578125 14.39648438 C13.15902344 15.42064453 13.14226562 16.44480469 13.125 17.5 C13.11597656 18.53576172 13.10695313 19.57152344 13.09765625 20.63867188 C13.0740786 23.19684685 13.0411703 25.75455748 13 28.3125 C-5.09011622 30.19104654 -5.09011622 30.19104654 -10.125 27.875 C-12.50944868 24.61625348 -12.73610502 22.41823205 -12.4609375 18.44140625 C-12 16.3125 -12 16.3125 -10.25 13.75 C-5.26094639 11.54330321 -0.37323778 12.00398874 5 12.3125 C4.34 10.9925 3.68 9.6725 3 8.3125 C-3.08408472 8.11435739 -3.08408472 8.11435739 -9 9.3125 C-10.4606285 6.66511084 -11 5.41801666 -11 2.3125 C-7.20947276 0.56356188 -4.16690915 0.01594481 0 0 Z M-3 17.3125 C-3.38218767 18.96864657 -3.71395102 20.63707024 -4 22.3125 C-3.67 22.6425 -3.34 22.9725 -3 23.3125 C-0.66055264 23.02519945 1.6739143 22.69313221 4 22.3125 C4.33 20.6625 4.66 19.0125 5 17.3125 C2.36 17.3125 -0.28 17.3125 -3 17.3125 Z " fill="#FFFFFF" transform="translate(449,394.6875)"/>
<path d="M0 0 C1.010625 -0.01675781 2.02125 -0.03351563 3.0625 -0.05078125 C6.44639709 0.36770602 8.27465492 1.2921487 11 3.3125 C13.20192224 6.61538336 13.23959968 7.58712727 13.1953125 11.41796875 C13.18886719 12.40087891 13.18242188 13.38378906 13.17578125 14.39648438 C13.15902344 15.42064453 13.14226563 16.44480469 13.125 17.5 C13.11597656 18.53576172 13.10695313 19.57152344 13.09765625 20.63867188 C13.0740786 23.19684685 13.0411703 25.75455748 13 28.3125 C-5.09011622 30.19104654 -5.09011622 30.19104654 -10.125 27.875 C-12.50944868 24.61625348 -12.73610502 22.41823205 -12.4609375 18.44140625 C-12 16.3125 -12 16.3125 -10.25 13.75 C-5.26094639 11.54330321 -0.37323778 12.00398874 5 12.3125 C4.34 10.9925 3.68 9.6725 3 8.3125 C-3.08408472 8.11435739 -3.08408472 8.11435739 -9 9.3125 C-10.4606285 6.66511084 -11 5.41801666 -11 2.3125 C-7.20947276 0.56356188 -4.16690915 0.01594481 0 0 Z M-3 17.3125 C-3.38218767 18.96864657 -3.71395102 20.63707024 -4 22.3125 C-3.67 22.6425 -3.34 22.9725 -3 23.3125 C-0.66055264 23.02519945 1.6739143 22.69313221 4 22.3125 C4.33 20.6625 4.66 19.0125 5 17.3125 C2.36 17.3125 -0.28 17.3125 -3 17.3125 Z " fill="#FFFFFF" transform="translate(557,334.6875)"/>
<path d="M0 0 C3.00197464 1.80118478 4.45166366 2.90332732 6 6 C6.08426094 7.6674606 6.10725143 9.33825187 6.09765625 11.0078125 C6.09443359 11.99394531 6.09121094 12.98007812 6.08789062 13.99609375 C6.07951172 15.02863281 6.07113281 16.06117188 6.0625 17.125 C6.05798828 18.16527344 6.05347656 19.20554687 6.04882812 20.27734375 C6.03701952 22.85161962 6.02055075 25.42578146 6 28 C3.36 28 0.72 28 -2 28 C-2.04898438 26.80761719 -2.09796875 25.61523438 -2.1484375 24.38671875 C-2.22347604 22.82028932 -2.2990234 21.25388421 -2.375 19.6875 C-2.4059375 18.90181641 -2.436875 18.11613281 -2.46875 17.30664062 C-2.50742187 16.54931641 -2.54609375 15.79199219 -2.5859375 15.01171875 C-2.63306885 13.96697388 -2.63306885 13.96697388 -2.68115234 12.90112305 C-2.92118253 10.67467261 -2.92118253 10.67467261 -5 8 C-7.94091587 8.18415432 -7.94091587 8.18415432 -11 9 C-13.57532962 12.48017517 -13.43587426 16.58135352 -13.625 20.75 C-13.68300781 21.79607422 -13.68300781 21.79607422 -13.7421875 22.86328125 C-13.83598624 24.57510818 -13.91906174 26.28751682 -14 28 C-16.64 28 -19.28 28 -22 28 C-22 19.09 -22 10.18 -22 1 C-19.03 1 -16.06 1 -13 1 C-9.0649579 -0.96752105 -4.2894478 -0.46422595 0 0 Z " fill="#FFFFFF" transform="translate(606,395)"/>
<path d="M0 0 C3.00197464 1.80118478 4.45166366 2.90332732 6 6 C6.08426094 7.6674606 6.10725143 9.33825187 6.09765625 11.0078125 C6.09443359 11.99394531 6.09121094 12.98007812 6.08789062 13.99609375 C6.07951172 15.02863281 6.07113281 16.06117188 6.0625 17.125 C6.05798828 18.16527344 6.05347656 19.20554687 6.04882812 20.27734375 C6.03701952 22.85161962 6.02055075 25.42578146 6 28 C3.36 28 0.72 28 -2 28 C-2.04898437 26.80761719 -2.09796875 25.61523438 -2.1484375 24.38671875 C-2.22347604 22.82028932 -2.2990234 21.25388421 -2.375 19.6875 C-2.4059375 18.90181641 -2.436875 18.11613281 -2.46875 17.30664062 C-2.50742187 16.54931641 -2.54609375 15.79199219 -2.5859375 15.01171875 C-2.63306885 13.96697388 -2.63306885 13.96697388 -2.68115234 12.90112305 C-2.92118253 10.67467261 -2.92118253 10.67467261 -5 8 C-7.94091587 8.18415432 -7.94091587 8.18415432 -11 9 C-13.57532962 12.48017517 -13.43587426 16.58135352 -13.625 20.75 C-13.68300781 21.79607422 -13.68300781 21.79607422 -13.7421875 22.86328125 C-13.83598624 24.57510818 -13.91906174 26.28751682 -14 28 C-16.64 28 -19.28 28 -22 28 C-22 19.09 -22 10.18 -22 1 C-19.03 1 -16.06 1 -13 1 C-9.0649579 -0.96752105 -4.2894478 -0.46422595 0 0 Z " fill="#FFFFFF" transform="translate(425,395)"/>
<path d="M0 0 C3.00197464 1.80118478 4.45166366 2.90332732 6 6 C6.08426094 7.6674606 6.10725143 9.33825187 6.09765625 11.0078125 C6.09443359 11.99394531 6.09121094 12.98007812 6.08789062 13.99609375 C6.07951172 15.02863281 6.07113281 16.06117188 6.0625 17.125 C6.05798828 18.16527344 6.05347656 19.20554687 6.04882812 20.27734375 C6.03701952 22.85161962 6.02055075 25.42578146 6 28 C3.36 28 0.72 28 -2 28 C-2.04898437 26.80761719 -2.09796875 25.61523438 -2.1484375 24.38671875 C-2.22347604 22.82028932 -2.2990234 21.25388421 -2.375 19.6875 C-2.4059375 18.90181641 -2.436875 18.11613281 -2.46875 17.30664062 C-2.50742187 16.54931641 -2.54609375 15.79199219 -2.5859375 15.01171875 C-2.63306885 13.96697388 -2.63306885 13.96697388 -2.68115234 12.90112305 C-2.92118253 10.67467261 -2.92118253 10.67467261 -5 8 C-7.94091587 8.18415432 -7.94091587 8.18415432 -11 9 C-13.57532962 12.48017517 -13.43587426 16.58135352 -13.625 20.75 C-13.68300781 21.79607422 -13.68300781 21.79607422 -13.7421875 22.86328125 C-13.83598624 24.57510818 -13.91906174 26.28751682 -14 28 C-16.64 28 -19.28 28 -22 28 C-22 19.09 -22 10.18 -22 1 C-19.03 1 -16.06 1 -13 1 C-9.0649579 -0.96752105 -4.2894478 -0.46422595 0 0 Z " fill="#FFFFFF" transform="translate(290,395)"/>
<path d="M0 0 C3.00197464 1.80118478 4.45166366 2.90332732 6 6 C6.08426094 7.6674606 6.10725143 9.33825187 6.09765625 11.0078125 C6.09443359 11.99394531 6.09121094 12.98007812 6.08789062 13.99609375 C6.07951172 15.02863281 6.07113281 16.06117188 6.0625 17.125 C6.05798828 18.16527344 6.05347656 19.20554687 6.04882812 20.27734375 C6.03701952 22.85161962 6.02055075 25.42578146 6 28 C3.36 28 0.72 28 -2 28 C-2.04898437 26.80761719 -2.09796875 25.61523438 -2.1484375 24.38671875 C-2.22347604 22.82028932 -2.2990234 21.25388421 -2.375 19.6875 C-2.4059375 18.90181641 -2.436875 18.11613281 -2.46875 17.30664062 C-2.50742187 16.54931641 -2.54609375 15.79199219 -2.5859375 15.01171875 C-2.63306885 13.96697388 -2.63306885 13.96697388 -2.68115234 12.90112305 C-2.92118253 10.67467261 -2.92118253 10.67467261 -5 8 C-7.94091587 8.18415432 -7.94091587 8.18415432 -11 9 C-13.57532962 12.48017517 -13.43587426 16.58135352 -13.625 20.75 C-13.68300781 21.79607422 -13.68300781 21.79607422 -13.7421875 22.86328125 C-13.83598624 24.57510818 -13.91906174 26.28751682 -14 28 C-16.64 28 -19.28 28 -22 28 C-22 19.09 -22 10.18 -22 1 C-19.03 1 -16.06 1 -13 1 C-9.0649579 -0.96752105 -4.2894478 -0.46422595 0 0 Z " fill="#FFFFFF" transform="translate(371,335)"/>
<path d="M0 0 C2.64 0 5.28 0 8 0 C8.06058594 1.12019531 8.12117187 2.24039062 8.18359375 3.39453125 C8.26801424 4.86719984 8.35266149 6.33985544 8.4375 7.8125 C8.47681641 8.55048828 8.51613281 9.28847656 8.55664062 10.04882812 C8.74381035 13.23071342 8.98720793 15.96162378 10 19 C11.98 19.33 13.96 19.66 16 20 C19.00817758 15.84661808 19.52025435 12.1809774 19.6875 7.1875 C19.72166016 6.49462891 19.75582031 5.80175781 19.79101562 5.08789062 C19.87286344 3.39247151 19.93812365 1.69626542 20 0 C22.64 0 25.28 0 28 0 C28 8.91 28 17.82 28 27 C25.03 27 22.06 27 19 27 C18.34 27.33 17.68 27.66 17 28 C11.52042702 28.61766523 7.37410058 29.04431644 2.875 25.625 C0.35895523 22.10253732 -0.12334132 20.47465831 -0.09765625 16.2109375 C-0.09443359 15.26992188 -0.09121094 14.32890625 -0.08789062 13.359375 C-0.07951172 12.37453125 -0.07113281 11.3896875 -0.0625 10.375 C-0.05798828 9.38242187 -0.05347656 8.38984375 -0.04882812 7.3671875 C-0.03702145 4.9113984 -0.020554 2.45572896 0 0 Z " fill="#FFFFFF" transform="translate(655,396)"/>
<path d="M0 0 C2.64 0 5.28 0 8 0 C8.06058594 1.12019531 8.12117187 2.24039062 8.18359375 3.39453125 C8.26801424 4.86719984 8.35266149 6.33985544 8.4375 7.8125 C8.47681641 8.55048828 8.51613281 9.28847656 8.55664062 10.04882812 C8.74381035 13.23071342 8.98720793 15.96162378 10 19 C11.98 19.33 13.96 19.66 16 20 C19.00817758 15.84661808 19.52025435 12.1809774 19.6875 7.1875 C19.72166016 6.49462891 19.75582031 5.80175781 19.79101562 5.08789062 C19.87286344 3.39247151 19.93812365 1.69626542 20 0 C22.64 0 25.28 0 28 0 C28 8.91 28 17.82 28 27 C25.03 27 22.06 27 19 27 C18.34 27.33 17.68 27.66 17 28 C11.52042702 28.61766523 7.37410058 29.04431644 2.875 25.625 C0.35895523 22.10253732 -0.12334132 20.47465831 -0.09765625 16.2109375 C-0.09443359 15.26992188 -0.09121094 14.32890625 -0.08789062 13.359375 C-0.07951172 12.37453125 -0.07113281 11.3896875 -0.0625 10.375 C-0.05798828 9.38242187 -0.05347656 8.38984375 -0.04882812 7.3671875 C-0.03702145 4.9113984 -0.020554 2.45572896 0 0 Z " fill="#FFFFFF" transform="translate(193,396)"/>
<path d="M0 0 C2.64 0 5.28 0 8 0 C8.06058594 1.12019531 8.12117187 2.24039062 8.18359375 3.39453125 C8.26801424 4.86719984 8.35266149 6.33985544 8.4375 7.8125 C8.47681641 8.55048828 8.51613281 9.28847656 8.55664062 10.04882812 C8.74381035 13.23071342 8.98720793 15.96162378 10 19 C11.98 19.33 13.96 19.66 16 20 C19.00817758 15.84661808 19.52025435 12.1809774 19.6875 7.1875 C19.72166016 6.49462891 19.75582031 5.80175781 19.79101562 5.08789062 C19.87286344 3.39247151 19.93812365 1.69626542 20 0 C22.64 0 25.28 0 28 0 C28 8.91 28 17.82 28 27 C25.03 27 22.06 27 19 27 C18.34 27.33 17.68 27.66 17 28 C11.52042702 28.61766523 7.37410058 29.04431644 2.875 25.625 C0.35895523 22.10253732 -0.12334132 20.47465831 -0.09765625 16.2109375 C-0.09443359 15.26992188 -0.09121094 14.32890625 -0.08789062 13.359375 C-0.07951172 12.37453125 -0.07113281 11.3896875 -0.0625 10.375 C-0.05798828 9.38242187 -0.05347656 8.38984375 -0.04882812 7.3671875 C-0.03702145 4.9113984 -0.020554 2.45572896 0 0 Z " fill="#FFFFFF" transform="translate(182,336)"/>
<path d="M0 0 C1.13308594 -0.01417969 2.26617187 -0.02835937 3.43359375 -0.04296875 C6.41707979 0.17678865 8.05545423 0.62906614 10.5625 2.1875 C9.9025 4.1675 9.2425 6.1475 8.5625 8.1875 C6.06675449 8.1875 3.94518756 7.95555819 1.5 7.5625 C0.200625 7.43875 -1.09875 7.315 -2.4375 7.1875 C-3.0975 7.8475 -3.7575 8.5075 -4.4375 9.1875 C-3.6125 9.455625 -2.7875 9.72375 -1.9375 10 C-0.7825 10.391875 0.3725 10.78375 1.5625 11.1875 C2.25859375 11.41695313 2.9546875 11.64640625 3.671875 11.8828125 C4.37828125 12.12773437 5.0846875 12.37265625 5.8125 12.625 C6.47765625 12.85058594 7.1428125 13.07617188 7.828125 13.30859375 C9.5625 14.1875 9.5625 14.1875 11.5625 17.1875 C12.06576079 21.04583276 11.87919325 22.69607943 9.75 26 C6.06448912 29.68551088 2.62405272 29.34877202 -2.375 29.375 C-3.60089844 29.38917969 -4.82679688 29.40335937 -6.08984375 29.41796875 C-9.19393812 29.20426797 -10.85112551 28.82748182 -13.4375 27.1875 C-13.1075 25.2075 -12.7775 23.2275 -12.4375 21.1875 C-9.4375 20.1875 -9.4375 20.1875 -6.625 21.1875 C-3.07694218 22.30061618 -1.00994368 22.03808183 2.5625 21.1875 C-0.91459478 18.86943681 -4.04527378 18.15641302 -8.0625 17.1640625 C-10.91995086 15.98912383 -11.89402713 14.83274451 -13.4375 12.1875 C-14.01677796 8.29806226 -13.77098129 6.70497097 -11.625 3.375 C-8.0564513 -0.1935487 -4.84079262 0.02747328 0 0 Z " fill="#FFFFFF" transform="translate(479.4375,394.8125)"/>
<path d="M0 0 C1.13308594 -0.01417969 2.26617187 -0.02835937 3.43359375 -0.04296875 C6.41707979 0.17678865 8.05545423 0.62906614 10.5625 2.1875 C9.9025 4.1675 9.2425 6.1475 8.5625 8.1875 C6.06675449 8.1875 3.94518756 7.95555819 1.5 7.5625 C0.200625 7.43875 -1.09875 7.315 -2.4375 7.1875 C-3.0975 7.8475 -3.7575 8.5075 -4.4375 9.1875 C-3.6125 9.455625 -2.7875 9.72375 -1.9375 10 C-0.7825 10.391875 0.3725 10.78375 1.5625 11.1875 C2.25859375 11.41695313 2.9546875 11.64640625 3.671875 11.8828125 C4.37828125 12.12773437 5.0846875 12.37265625 5.8125 12.625 C6.47765625 12.85058594 7.1428125 13.07617188 7.828125 13.30859375 C9.5625 14.1875 9.5625 14.1875 11.5625 17.1875 C12.06576079 21.04583276 11.87919325 22.69607943 9.75 26 C6.06448912 29.68551088 2.62405272 29.34877202 -2.375 29.375 C-3.60089844 29.38917969 -4.82679688 29.40335937 -6.08984375 29.41796875 C-9.19393812 29.20426797 -10.85112551 28.82748182 -13.4375 27.1875 C-13.1075 25.2075 -12.7775 23.2275 -12.4375 21.1875 C-9.4375 20.1875 -9.4375 20.1875 -6.625 21.1875 C-3.07694218 22.30061618 -1.00994368 22.03808183 2.5625 21.1875 C-0.91459478 18.86943681 -4.04527378 18.15641302 -8.0625 17.1640625 C-10.91995086 15.98912383 -11.89402713 14.83274451 -13.4375 12.1875 C-14.01677796 8.29806226 -13.77098129 6.70497097 -11.625 3.375 C-8.0564513 -0.1935487 -4.84079262 0.02747328 0 0 Z " fill="#FFFFFF" transform="translate(238.4375,394.8125)"/>
<path d="M0 0 C2.83550724 1.3679619 3.92581523 2.52250152 6 5 C6 5.99 6 6.98 6 8 C4.02 8.99 2.04 9.98 0 11 C-0.37125 10.505 -0.7425 10.01 -1.125 9.5 C-3.00106978 7.74913573 -3.00106978 7.74913573 -6 7.5 C-9.13123503 7.70421872 -9.13123503 7.70421872 -10.9375 10.125 C-12.21905896 13.59274776 -12.01820951 15.4754286 -11 19 C-9.12782652 21.28987808 -9.12782652 21.28987808 -6.125 21.3125 C-2.73620199 20.9736202 -1.46115371 20.27183419 1 18 C2.65 18.99 4.3 19.98 6 21 C5.8125 23.3125 5.8125 23.3125 5 26 C-0.30683308 29.99439049 -5.61492952 29.77866713 -12 29 C-16.45498552 26.8897437 -19.22604963 24.63198151 -21 20 C-21.66198068 14.65511896 -21.67332051 10.39651661 -19.3125 5.5 C-13.71455429 -0.5518332 -7.92581598 -1.16587577 0 0 Z " fill="#FFFFFF" transform="translate(542,395)"/>
<path d="M0 0 C2.64 0 5.28 0 8 0 C8 2.31 8 4.62 8 7 C10.31 7 12.62 7 15 7 C15 8.98 15 10.96 15 13 C12.69 13 10.38 13 8 13 C8.33 17.62 8.66 22.24 9 27 C10.98 26.67 12.96 26.34 15 26 C15.66 28.31 16.32 30.62 17 33 C14.59486979 34.20256511 12.87146436 34.2703777 10.1875 34.375 C9.33542969 34.42398438 8.48335937 34.47296875 7.60546875 34.5234375 C3.70443168 33.73972091 2.33071398 32.18088546 0 29 C-0.57619227 26.19325882 -0.47803667 23.53727741 -0.3125 20.6875 C-0.28994141 19.94693359 -0.26738281 19.20636719 -0.24414062 18.44335938 C-0.1855815 16.62802643 -0.09590886 14.81374319 0 13 C-1.32 13 -2.64 13 -4 13 C-4 11.02 -4 9.04 -4 7 C-2.68 7 -1.36 7 0 7 C0 4.69 0 2.38 0 0 Z " fill="#FFFFFF" transform="translate(519,450)"/>
<path d="M0 0 C2.64 0 5.28 0 8 0 C8 2.31 8 4.62 8 7 C10.31 7 12.62 7 15 7 C15 8.98 15 10.96 15 13 C12.69 13 10.38 13 8 13 C8.33 17.62 8.66 22.24 9 27 C10.98 26.67 12.96 26.34 15 26 C15.66 28.31 16.32 30.62 17 33 C14.59486979 34.20256511 12.87146436 34.2703777 10.1875 34.375 C9.33542969 34.42398438 8.48335937 34.47296875 7.60546875 34.5234375 C3.70443168 33.73972091 2.33071398 32.18088546 0 29 C-0.57619227 26.19325882 -0.47803667 23.53727741 -0.3125 20.6875 C-0.28994141 19.94693359 -0.26738281 19.20636719 -0.24414062 18.44335938 C-0.1855815 16.62802643 -0.09590886 14.81374319 0 13 C-1.32 13 -2.64 13 -4 13 C-4 11.02 -4 9.04 -4 7 C-2.68 7 -1.36 7 0 7 C0 4.69 0 2.38 0 0 Z " fill="#FFFFFF" transform="translate(634,390)"/>
<path d="M0 0 C2.64 0 5.28 0 8 0 C8 2.31 8 4.62 8 7 C10.31 7 12.62 7 15 7 C15 8.98 15 10.96 15 13 C12.69 13 10.38 13 8 13 C8.33 17.62 8.66 22.24 9 27 C10.98 26.67 12.96 26.34 15 26 C15.66 28.31 16.32 30.62 17 33 C14.59486979 34.20256511 12.87146436 34.2703777 10.1875 34.375 C9.33542969 34.42398438 8.48335937 34.47296875 7.60546875 34.5234375 C3.70443168 33.73972091 2.33071398 32.18088546 0 29 C-0.57619227 26.19325882 -0.47803667 23.53727741 -0.3125 20.6875 C-0.28994141 19.94693359 -0.26738281 19.20636719 -0.24414062 18.44335938 C-0.1855815 16.62802643 -0.09590886 14.81374319 0 13 C-1.32 13 -2.64 13 -4 13 C-4 11.02 -4 9.04 -4 7 C-2.68 7 -1.36 7 0 7 C0 4.69 0 2.38 0 0 Z " fill="#FFFFFF" transform="translate(172,390)"/>
<path d="M0 0 C2.64 0 5.28 0 8 0 C8 2.31 8 4.62 8 7 C10.31 7 12.62 7 15 7 C15 8.98 15 10.96 15 13 C12.69 13 10.38 13 8 13 C8.33 17.62 8.66 22.24 9 27 C10.98 26.67 12.96 26.34 15 26 C15.66 28.31 16.32 30.62 17 33 C14.59486979 34.20256511 12.87146436 34.2703777 10.1875 34.375 C9.33542969 34.42398438 8.48335938 34.47296875 7.60546875 34.5234375 C3.70443168 33.73972091 2.33071398 32.18088546 0 29 C-0.57619227 26.19325882 -0.47803667 23.53727741 -0.3125 20.6875 C-0.28994141 19.94693359 -0.26738281 19.20636719 -0.24414062 18.44335938 C-0.1855815 16.62802643 -0.09590886 14.81374319 0 13 C-1.32 13 -2.64 13 -4 13 C-4 11.02 -4 9.04 -4 7 C-2.68 7 -1.36 7 0 7 C0 4.69 0 2.38 0 0 Z " fill="#FFFFFF" transform="translate(385,330)"/>
<path d="M0 0 C2.64 0 5.28 0 8 0 C8 12.21 8 24.42 8 37 C5.36 37 2.72 37 0 37 C0 24.79 0 12.58 0 0 Z " fill="#FFFFFF" transform="translate(472,446)"/>
<path d="M0 0 C2.64 0 5.28 0 8 0 C8 12.21 8 24.42 8 37 C5.36 37 2.72 37 0 37 C0 24.79 0 12.58 0 0 Z " fill="#FFFFFF" transform="translate(457,446)"/>
<path d="M0 0 C2.64 0 5.28 0 8 0 C8 12.21 8 24.42 8 37 C5.36 37 2.72 37 0 37 C0 24.79 0 12.58 0 0 Z " fill="#FFFFFF" transform="translate(483,326)"/>
<path d="M0 0 C0 2.64 0 5.28 0 8 C-1.423125 8.0928125 -1.423125 8.0928125 -2.875 8.1875 C-3.90625 8.455625 -4.9375 8.72375 -6 9 C-8.18749266 12.96113536 -8.37494149 16.85312324 -8.625 21.3125 C-8.69976563 22.56675781 -8.77453125 23.82101562 -8.8515625 25.11328125 C-8.90054688 26.06589844 -8.94953125 27.01851563 -9 28 C-11.64 28 -14.28 28 -17 28 C-17 19.09 -17 10.18 -17 1 C-13.66666667 1 -10.33333333 1 -7 1 C-4 0 -4 0 0 0 Z " fill="#FFFFFF" transform="translate(588,455)"/>
<path d="M0 0 C0 2.64 0 5.28 0 8 C-1.423125 8.0928125 -1.423125 8.0928125 -2.875 8.1875 C-3.90625 8.455625 -4.9375 8.72375 -6 9 C-8.18749266 12.96113536 -8.37494149 16.85312324 -8.625 21.3125 C-8.69976562 22.56675781 -8.77453125 23.82101562 -8.8515625 25.11328125 C-8.90054687 26.06589844 -8.94953125 27.01851563 -9 28 C-11.64 28 -14.28 28 -17 28 C-17 19.09 -17 10.18 -17 1 C-13.66666667 1 -10.33333333 1 -7 1 C-4 0 -4 0 0 0 Z " fill="#FFFFFF" transform="translate(276,455)"/>
<path d="M0 0 C0 2.64 0 5.28 0 8 C-1.423125 8.0928125 -1.423125 8.0928125 -2.875 8.1875 C-3.90625 8.455625 -4.9375 8.72375 -6 9 C-8.18749266 12.96113536 -8.37494149 16.85312324 -8.625 21.3125 C-8.69976562 22.56675781 -8.77453125 23.82101562 -8.8515625 25.11328125 C-8.90054687 26.06589844 -8.94953125 27.01851563 -9 28 C-11.64 28 -14.28 28 -17 28 C-17 19.09 -17 10.18 -17 1 C-13.66666667 1 -10.33333333 1 -7 1 C-4 0 -4 0 0 0 Z " fill="#FFFFFF" transform="translate(312,335)"/>
<path d="M0 0 C2.64 0 5.28 0 8 0 C8 8.91 8 17.82 8 27 C5.36 27 2.72 27 0 27 C0 18.09 0 9.18 0 0 Z " fill="#FFFFFF" transform="translate(442,456)"/>
<path d="M0 0 C2.64 0 5.28 0 8 0 C8 8.91 8 17.82 8 27 C5.36 27 2.72 27 0 27 C0 18.09 0 9.18 0 0 Z " fill="#FFFFFF" transform="translate(347,456)"/>
<path d="M0 0 C2.64 0 5.28 0 8 0 C8 8.91 8 17.82 8 27 C5.36 27 2.72 27 0 27 C0 18.09 0 9.18 0 0 Z " fill="#FFFFFF" transform="translate(388,396)"/>
<path d="M0 0 C3 0.25 3 0.25 5 2.25 C5.23251976 7.78618474 3.80528889 12.49320579 1 17.25 C-0.98 17.25 -2.96 17.25 -5 17.25 C-4.70703125 15.19921875 -4.4140625 13.1484375 -4.12109375 11.09765625 C-4.08113281 10.48792969 -4.04117187 9.87820313 -4 9.25 C-4.33 8.92 -4.66 8.59 -5 8.25 C-5.1875 5.3125 -5.1875 5.3125 -5 2.25 C-3 0.25 -3 0.25 0 0 Z " fill="#FFFFFF" transform="translate(499,413.75)"/>
<path d="M0 0 C3 0.25 3 0.25 5 2.25 C5.25 5.25 5.25 5.25 5 8.25 C3 10.25 3 10.25 0 10.5 C-3 10.25 -3 10.25 -5 8.25 C-5.25 5.25 -5.25 5.25 -5 2.25 C-3 0.25 -3 0.25 0 0 Z " fill="#FFFFFF" transform="translate(627,473.75)"/>
<path d="M0 0 C3.4375 0.1875 3.4375 0.1875 4.4375 1.1875 C4.625 4.125 4.625 4.125 4.4375 7.1875 C2.4375 9.1875 2.4375 9.1875 -0.5625 9.4375 C-3.5625 9.1875 -3.5625 9.1875 -5.5625 7.1875 C-5.8125 4.6875 -5.8125 4.6875 -5.5625 2.1875 C-3.5625 0.1875 -3.5625 0.1875 0 0 Z " fill="#FFFFFF" transform="translate(446.5625,443.8125)"/>
<path d="M0 0 C3.4375 0.1875 3.4375 0.1875 4.4375 1.1875 C4.625 4.125 4.625 4.125 4.4375 7.1875 C2.4375 9.1875 2.4375 9.1875 -0.5625 9.4375 C-3.5625 9.1875 -3.5625 9.1875 -5.5625 7.1875 C-5.8125 4.6875 -5.8125 4.6875 -5.5625 2.1875 C-3.5625 0.1875 -3.5625 0.1875 0 0 Z " fill="#FFFFFF" transform="translate(351.5625,443.8125)"/>
<path d="M0 0 C3.4375 0.1875 3.4375 0.1875 4.4375 1.1875 C4.625 4.125 4.625 4.125 4.4375 7.1875 C2.4375 9.1875 2.4375 9.1875 -0.5625 9.4375 C-3.5625 9.1875 -3.5625 9.1875 -5.5625 7.1875 C-5.8125 4.6875 -5.8125 4.6875 -5.5625 2.1875 C-3.5625 0.1875 -3.5625 0.1875 0 0 Z " fill="#FFFFFF" transform="translate(392.5625,383.8125)"/>
</svg>
