<?xml version="1.0" encoding="UTF-8"?>
<svg version="1.1" xmlns="http://www.w3.org/2000/svg" width="869" height="869">
<path d="M0 0 C4.45131961 3.29397651 5.73301409 5.56363979 6.9375 10.9375 C7.46010449 16.1836451 6.2597319 21.21089543 5.125 26.3125 C5.8571875 26.33828125 6.589375 26.3640625 7.34375 26.390625 C15.61245641 26.82374772 23.65105261 27.94330981 31.8125 29.3125 C32.87597656 29.49071289 33.93945312 29.66892578 35.03515625 29.85253906 C42.69633637 31.16961212 42.69633637 31.16961212 46.125 32.3125 C47.445 26.3725 48.765 20.4325 50.125 14.3125 C97.26076574 11.22163012 149.89014155 48.27851237 184.125 77.3125 C186.63406121 79.51472555 189.11605735 81.7418393 191.58203125 83.9921875 C193.35966568 85.61417652 195.14981821 87.22250455 196.94921875 88.8203125 C201.87350319 93.21387597 206.50030197 97.6103684 210.6875 102.71875 C212.2298478 104.56030677 212.2298478 104.56030677 215.125 106.3125 C217.98257107 105.88436961 217.98257107 105.88436961 221.125 104.9375 C228.37868546 103.13418689 235.37104239 101.57990418 242.375 104.8125 C243.2825 105.6375 244.19 106.4625 245.125 107.3125 C246.00285156 108.09947266 246.00285156 108.09947266 246.8984375 108.90234375 C252.51890519 114.51095391 254.26091908 120.74376943 256.125 128.3125 C256.35058594 129.0859375 256.57617188 129.859375 256.80859375 130.65625 C258.82383391 138.10568949 259.64146731 147.03682863 257.04296875 154.36328125 C251.85607742 162.33905101 243.66947582 165.90919 235.375 170.0625 C234.15583046 170.68114272 232.93716713 171.30078399 231.71899414 171.92138672 C229.88939237 172.85334909 228.05949454 173.78465025 226.22767639 174.71224976 C222.04358251 176.83261535 217.9013659 179.02025496 213.77392578 181.24829102 C137.91808648 222.04027526 52.21499549 254.0778262 -218.875 298.3125 C-219.59409546 298.35453552 -220.31319092 298.39657104 -221.05407715 298.43988037 C-240.21368884 299.55299688 -259.39197488 299.53367945 -278.57714844 299.55273438 C-283.33886342 299.55828356 -288.10030176 299.58251393 -292.86192894 299.61070633 C-296.5698223 299.62936024 -300.27764795 299.63453907 -303.98558426 299.63607025 C-305.74212841 299.63907478 -307.498672 299.64702783 -309.25516891 299.66025543 C-329.66782485 299.8034336 -329.66782485 299.8034336 -335.6656189 294.82672119 C-342.63442773 287.89298768 -344.22596452 277.48284707 -346.25 268.25 C-346.44223145 267.42346924 -346.63446289 266.59693848 -346.83251953 265.74536133 C-348.27212196 258.68767901 -347.93104587 252.17926809 -344.5 245.7265625 C-336.77189448 237.21821555 -326.78667438 235.5700878 -315.875 233.3125 C-315.73513672 232.73097168 -315.59527344 232.14944336 -315.45117188 231.55029297 C-301.42790362 173.93540225 -269.80549366 120.3446742 -222.875 83.3125 C-222.10414063 82.67441406 -221.33328125 82.03632813 -220.5390625 81.37890625 C-219.49878906 80.54166016 -219.49878906 80.54166016 -218.4375 79.6875 C-217.84066406 79.20023437 -217.24382812 78.71296875 -216.62890625 78.2109375 C-214.875 77.3125 -214.875 77.3125 -212.88671875 77.37890625 C-210.11795427 78.66382802 -208.91830619 80.42644732 -207.125 82.875 C-206.51140625 83.70128906 -205.8978125 84.52757812 -205.265625 85.37890625 C-204.80671875 86.01699219 -204.3478125 86.65507812 -203.875 87.3125 C-201.058519 85.99496368 -198.69321388 84.5185487 -196.2578125 82.58984375 C-195.57452881 82.05512451 -194.89124512 81.52040527 -194.18725586 80.96948242 C-193.46546143 80.40205322 -192.74366699 79.83462402 -192 79.25 C-184.55768665 73.46708328 -176.90558486 68.23775569 -168.875 63.3125 C-170.18547356 60.53233647 -171.69578251 58.16698018 -173.5 55.6875 C-176.45562084 50.98657189 -176.86611129 46.74088018 -175.875 41.3125 C-173.81636311 37.26874897 -171.65652742 34.75416101 -167.875 32.3125 C-165.1859436 31.45178223 -165.1859436 31.45178223 -161.99462891 30.74414062 C-160.74805511 30.46284302 -159.50148132 30.18154541 -158.21713257 29.89172363 C-156.8036632 29.58381782 -155.39013733 29.27617128 -153.9765625 28.96875 C-152.45178899 28.62961179 -150.9271882 28.28969634 -149.40274048 27.94909668 C-144.92754476 26.95274731 -140.44922419 25.97104034 -135.97041321 24.99108887 C-132.68867403 24.27165288 -129.4078975 23.5479534 -126.12731934 22.82324219 C-111.93380166 19.68802308 -97.73560449 16.57516107 -83.53193283 13.48632812 C-75.95857082 11.839237 -68.38665836 10.18579286 -60.81654108 8.52384996 C-55.4065425 7.33668311 -49.99500928 6.15669021 -44.58228934 4.98199415 C-41.38059009 4.28695511 -38.17984177 3.58797315 -34.98029709 2.8830719 C-31.44101804 2.10403222 -27.89937747 1.33676549 -24.35693359 0.57226562 C-23.32218903 0.34171478 -22.28744446 0.11116394 -21.22134399 -0.12637329 C-6.36982363 -3.29401818 -6.36982363 -3.29401818 0 0 Z " fill="#FFFFFF" transform="translate(442.875,76.6875)"/>
<path d="M0 0 C1.78515625 0.03125 1.78515625 0.03125 4 1 C5.67310473 3.14453203 7.05149397 5.17767999 8.4375 7.5 C8.86216553 8.19923584 9.28683105 8.89847168 9.72436523 9.61889648 C32.88747296 48.46496903 46.42916962 90.23465681 52 135 C52.10747559 135.84812256 52.21495117 136.69624512 52.32568359 137.57006836 C53.23850493 145.93328897 53.1510675 154.32144496 53.13037109 162.72338867 C53.12503263 165.29677277 53.13033259 167.86998071 53.13671875 170.44335938 C53.14767224 194.40931103 53.14767224 194.40931103 51 203 C-118.95 203 -288.9 203 -464 203 C-458.36652682 225.53389272 -453.00982225 246.81754933 -442.02099609 267.10986328 C-440.98922565 269.0199462 -439.98861671 270.9443964 -438.98828125 272.87109375 C-430.69065199 288.53379375 -419.95019561 302.78879782 -407.54052734 315.42431641 C-405.92029985 317.08151898 -404.32946048 318.76413694 -402.73828125 320.44921875 C-390.38600901 333.35648939 -376.23324493 343.74301065 -361 353 C-359.96488281 353.65226562 -358.92976562 354.30453125 -357.86328125 354.9765625 C-335.44466244 368.55213143 -309.67743511 376.44625403 -284 381 C-282.11474609 381.3403125 -282.11474609 381.3403125 -280.19140625 381.6875 C-225.08637803 389.80942842 -167.394191 374.40960077 -122.8125 341.5 C-120.87015426 340.00628005 -118.9324183 338.50654099 -117 337 C-116.16726563 336.37351562 -115.33453125 335.74703125 -114.4765625 335.1015625 C-101.76282255 325.20440494 -89.7926221 313.34295648 -80.0625 300.5 C-79.6257108 299.92609685 -79.1889216 299.3521937 -78.73889637 298.76089954 C-75.95594893 294.99682633 -73.57268045 291.31216672 -71.56243896 287.0789032 C-65.36891065 274.55300056 -65.36891065 274.55300056 -59.710495 271.94458389 C-53.16012076 270.33804896 -46.50728066 270.81658702 -39.828125 271.14453125 C-37.69305447 271.18002549 -35.55782782 271.20704457 -33.42254639 271.22599792 C-27.83527879 271.29812852 -22.25758628 271.48429533 -16.67407227 271.69537354 C-10.96372057 271.89070624 -5.25180075 271.97671387 0.4609375 272.07226562 C11.64480476 272.27528192 22.82160277 272.59896646 34 273 C28.16747915 303.46249499 5.78397655 335.08043907 -13.70214844 358.44189453 C-15.01736104 360.02084239 -16.30930511 361.61708247 -17.6015625 363.21484375 C-23.84285153 370.81376132 -30.63463477 377.83882364 -37.5625 384.8125 C-38.42472168 385.68398682 -39.28694336 386.55547363 -40.17529297 387.45336914 C-46.14095751 393.39022769 -52.39720598 398.78543143 -59 404 C-59.7216333 404.57564697 -60.4432666 405.15129395 -61.18676758 405.74438477 C-102.0238215 438.103295 -150.48350228 459.74819169 -202 468 C-203.38106934 468.22429687 -203.38106934 468.22429687 -204.79003906 468.453125 C-280.73147923 480.17139179 -363.61284635 462.07791389 -425.8828125 416.49609375 C-429.39875449 413.85250269 -432.85510938 411.13961635 -436.28125 408.38085938 C-437.78889827 407.16960105 -439.31492604 405.98129356 -440.84375 404.796875 C-458.03993922 391.4099682 -474.89027382 375.42245853 -488 358 C-488.93551245 356.7924374 -489.87176685 355.58544939 -490.80859375 354.37890625 C-531.0181075 302.15379799 -554.66864766 237.58992033 -554.20581055 171.44628906 C-554.18741535 168.73753474 -554.18530301 166.02912329 -554.18554688 163.3203125 C-554.12753261 134.12753261 -554.12753261 134.12753261 -552 132 C-549.26973866 131.90103462 -546.56475533 131.86824209 -543.83400631 131.87695217 C-542.96334002 131.87579833 -542.09267373 131.87464448 -541.19562361 131.87345567 C-538.23984845 131.87078123 -535.28412635 131.87531792 -532.32835388 131.87974548 C-530.20321851 131.87930995 -528.07808319 131.87843537 -525.95294815 131.87715632 C-520.0833902 131.87490784 -514.21385031 131.87893743 -508.34429467 131.88393438 C-502.02591648 131.88823366 -495.70753939 131.88679283 -489.38916016 131.8860321 C-478.43222719 131.88550654 -467.47530101 131.88862203 -456.51836967 131.89426994 C-445.02270924 131.90018041 -433.52705118 131.90403456 -422.03138924 131.90512276 C-421.31748938 131.9051915 -420.60358953 131.90526024 -419.86805635 131.90533106 C-416.24274218 131.90566938 -412.61742801 131.90597077 -408.99211384 131.90625793 C-383.29234837 131.90836016 -357.59258599 131.91510257 -331.89282227 131.92456055 C-306.92081723 131.93374011 -281.94881303 131.94082611 -256.97680664 131.94506836 C-256.20749937 131.94519989 -255.4381921 131.94533141 -254.64557249 131.94546692 C-246.92010116 131.94678541 -239.19462982 131.94806123 -231.46915847 131.94930578 C-215.73050196 131.95184222 -199.99184551 131.95466347 -184.25318909 131.95765686 C-183.52949958 131.95779415 -182.80581008 131.95793144 -182.06019059 131.95807289 C-133.70679241 131.96727859 -85.35339605 131.98314513 -37 132 C-37.93235362 128.19078709 -38.8699931 124.38291538 -39.81219482 120.5761261 C-40.28617911 118.65659717 -40.75617309 116.73608432 -41.22607422 114.81555176 C-47.41744842 89.84176995 -57.98846606 65.21274225 -73.20751953 44.34423828 C-74.21052555 42.94518449 -75.1143239 41.47612684 -76 40 C-75 37 -75 37 -72.89648438 35.74829102 C-71.97158203 35.33764404 -71.04667969 34.92699707 -70.09375 34.50390625 C-69.05259033 34.03404297 -68.01143066 33.56417969 -66.9387207 33.08007812 C-65.23655396 32.32887695 -65.23655396 32.32887695 -63.5 31.5625 C-61.10736702 30.48203055 -58.7154571 29.39995872 -56.32421875 28.31640625 C-55.71249313 28.04059723 -55.10076752 27.76478821 -54.47050476 27.48062134 C-25.44826056 16.38714212 -25.44826056 16.38714212 0 0 Z " fill="#FFFFFF" transform="translate(685,268)"/>
<path d="M0 0 C1.39150112 1.12573694 2.76815053 2.2702303 4.125 3.4375 C7.22623942 5.90950244 8.99692603 6.30477074 12.9375 5.875 C14.06478516 5.65457031 14.06478516 5.65457031 15.21484375 5.4296875 C66.13027069 -2.42542746 127.52200377 34.89779286 166.48046875 63.234375 C179.34812642 72.72544496 192.67481548 82.67481548 204 94 C205.83907561 94.21374757 207.67912546 94.42127318 209.52246094 94.59448242 C230.96111479 96.63549712 247.52067794 105.82843745 261.5703125 121.94921875 C271.4435551 134.48321656 276.30601523 147.74482237 280 163 C280.309375 164.20785156 280.61875 165.41570312 280.9375 166.66015625 C285.66144923 186.44169365 285.42096735 207.4842019 275.51171875 225.7421875 C274.6620745 231.15137303 277.67061496 234.95841209 280.3125 239.5625 C281.44468735 241.63220812 282.57089066 243.70519974 283.69140625 245.78125 C284.2548877 246.82410156 284.81836914 247.86695313 285.39892578 248.94140625 C289.47044748 256.71939099 292.75987093 264.84840463 296 273 C296.50974365 274.27182129 296.50974365 274.27182129 297.02978516 275.56933594 C306.75755436 300.14230435 312.94281826 325.923172 317 352 C317.16371094 353.00305176 317.32742188 354.00610352 317.49609375 355.03955078 C322.73087377 388.21659149 328.51148171 442.62505661 308.7265625 471.62890625 C304.93717293 476.83288695 300.97338359 480.92032457 296 485 C296.54140625 486.40185547 296.54140625 486.40185547 297.09375 487.83203125 C306.07116499 512.58783636 298.18881184 532.81888789 287.578125 555.67138672 C271.36010888 589.8787555 250.06252616 623.99516715 222.5625 650.4375 C220.82934402 652.17065598 219.26793953 654.00188648 217.6875 655.875 C214.28658537 659.81369846 210.55054402 663.23239311 206.64453125 666.6640625 C204.91057428 668.1956818 203.19845792 669.75246807 201.51171875 671.3359375 C193.48473394 678.86351961 184.83132721 685.45094929 176 692 C175.39784668 692.44875488 174.79569336 692.89750977 174.17529297 693.35986328 C118.20025462 734.88973044 46.77410581 761.88453133 -23.37890625 762.203125 C-24.42118881 762.21013931 -25.46347137 762.21715363 -26.53733826 762.22438049 C-29.87910341 762.24177119 -33.22069126 762.24823213 -36.5625 762.25 C-37.70549561 762.25067474 -38.84849121 762.25134949 -40.02612305 762.25204468 C-56.88856614 762.23622098 -73.33489537 761.78703414 -90 759 C-91.62639404 758.74259033 -91.62639404 758.74259033 -93.28564453 758.47998047 C-126.43022947 753.16259114 -158.74542965 743.60680514 -189 729 C-189.68674805 728.67177246 -190.37349609 728.34354492 -191.08105469 728.00537109 C-217.69364699 715.23054902 -242.23660413 699.80919095 -265 681 C-265.95777344 680.21625 -266.91554688 679.4325 -267.90234375 678.625 C-281.50562944 667.38220908 -294.37669931 655.28627293 -306 642 C-306.94779561 640.93869396 -307.89571618 639.87749951 -308.84375 638.81640625 C-357.10157019 584.24044255 -386.06854521 514.10290418 -394 442 C-394.13636368 440.76070236 -394.13636368 440.76070236 -394.27548218 439.49636841 C-394.92661113 433.03853365 -395.04285793 426.73312819 -394.89453125 420.25 C-394.87067205 417.20703659 -394.85717645 414.16411823 -394.84350586 411.12109375 C-394.82283242 409.04007578 -394.782457 406.95916051 -394.72241211 404.87890625 C-393.87787354 392.38928558 -393.87787354 392.38928558 -398.57788086 381.359375 C-401.46737659 378.55076124 -404.71501513 376.32028805 -408 374 C-411.69843968 369.86939586 -414.2994462 364.8208233 -417 360 C-417.47953125 359.154375 -417.9590625 358.30875 -418.453125 357.4375 C-429.81557646 335.00025407 -434.45457473 305.30765376 -428 281 C-421.99513253 262.81504674 -409.81655593 247.02255905 -392.8828125 237.84765625 C-391 237 -391 237 -389 237 C-388.83419434 236.33500488 -388.66838867 235.67000977 -388.49755859 234.98486328 C-379.31225527 199.6000771 -358.67365528 166.29362112 -336 138 C-335.19949219 136.98679688 -334.39898437 135.97359375 -333.57421875 134.9296875 C-318.30735365 115.89356086 -300.84776202 97.26557895 -281 83 C-280.113125 82.3296875 -279.22625 81.659375 -278.3125 80.96875 C-272.0704052 76.36520508 -265.3188947 72.70999979 -257.91015625 70.328125 C-254.84032884 68.19368467 -253.79134727 64.88059228 -252.3125 61.5625 C-244.01226546 44.07761178 -230.72021843 33.26705095 -213 26 C-207.419507 24.11173852 -201.64771426 23.0085061 -195.8828125 21.84375 C-194.17687647 21.48137164 -192.47141851 21.11673706 -190.76638794 20.75012207 C-186.96510442 19.93578748 -183.16149279 19.13367045 -179.3560791 18.33886719 C-172.43160491 16.88738609 -165.5198037 15.37949987 -158.60839844 13.8671875 C-156.04825386 13.30738244 -153.4880933 12.74765046 -150.92791748 12.18798828 C-149.95990656 11.97635324 -149.95990656 11.97635324 -148.97233987 11.76044273 C-141.69066302 10.16927216 -134.40601467 8.59186507 -127.12109375 7.015625 C-126.45694128 6.8719109 -125.7927888 6.72819679 -125.10851049 6.58012772 C-122.40978713 5.99616885 -119.71106094 5.41222309 -117.01231694 4.8283596 C-111.48725849 3.63289398 -105.9627011 2.4351253 -100.43825138 1.23685026 C-94.3836394 -0.07635817 -88.32867923 -1.38795431 -82.27356339 -2.69883728 C-79.72737853 -3.25022778 -77.18128303 -3.80203105 -74.63528061 -4.35426331 C-71.11115727 -5.11842722 -67.58664119 -5.88075258 -64.06201172 -6.64257812 C-63.02433655 -6.86796265 -61.98666138 -7.09334717 -60.9175415 -7.32556152 C-39.48114223 -11.9501523 -19.3244422 -11.70918053 0 0 Z M-70.5703125 21.40625 C-73.17665232 21.97124627 -75.78321253 22.53511068 -78.3901062 23.09753418 C-84.55066453 24.42924503 -90.70789434 25.77572919 -96.86405361 27.12761259 C-103.73285561 28.63520218 -110.60533727 30.12565306 -117.47814798 31.61484146 C-129.87147855 34.30058451 -142.25962545 37.00912785 -154.64473343 39.73257446 C-161.02669857 41.13431382 -167.41123505 42.52213934 -173.80187416 43.88379669 C-177.15840446 44.59956707 -180.51318545 45.32330708 -183.86770248 46.04844666 C-185.32928918 46.36214465 -186.79171075 46.67198645 -188.25506973 46.97731018 C-204.0104229 50.26664058 -216.71372831 54.897526 -226.375 68.375 C-231.30000696 76.39732011 -233.59385451 84.6383464 -234 94 C-234.97839844 94.02578125 -235.95679688 94.0515625 -236.96484375 94.078125 C-251.19552376 94.6938083 -258.96193618 99.07461223 -270 108 C-270.5269043 108.42249023 -271.05380859 108.84498047 -271.59667969 109.28027344 C-286.40993778 121.26171692 -300.42161287 134.85432811 -312 150 C-313.07065115 151.33385289 -314.14379197 152.66570935 -315.21875 153.99609375 C-323.65559245 164.51772926 -331.09690397 175.41881467 -338 187 C-338.40025391 187.66676758 -338.80050781 188.33353516 -339.21289062 189.02050781 C-341.9463289 193.60961074 -344.52003227 198.26938373 -347 203 C-347.42635742 203.8132373 -347.85271484 204.62647461 -348.29199219 205.46435547 C-353.02889927 214.63294777 -357.45484428 223.71101048 -360.359375 233.640625 C-366.56234444 254.63410755 -366.56234444 254.63410755 -371.8671875 258.3359375 C-374.5661812 259.77257021 -377.31735037 260.79805375 -380.21875 261.75 C-389.79601285 264.91603731 -395.4909561 273.38011349 -400 282 C-405.1301325 293.72601714 -405.89793212 304.0814291 -403.3125 316.5 C-403.13315918 317.37003662 -402.95381836 318.24007324 -402.76904297 319.13647461 C-400.1422568 331.45445862 -396.93131455 343.32397525 -390 354 C-389.59652344 354.63035156 -389.19304687 355.26070313 -388.77734375 355.91015625 C-384.10722191 362.17983052 -376.7068001 366.20807841 -370 370 C-369.34 370 -368.68 370 -368 370 C-368.06928711 370.60376465 -368.13857422 371.2075293 -368.20996094 371.82958984 C-369.29611544 382.73945134 -369.24367599 393.67106463 -369.25 404.625 C-369.25067474 405.67456879 -369.25134949 406.72413757 -369.25204468 407.80551147 C-369.23577176 423.74826016 -368.70250374 439.25429039 -366 455 C-365.74259033 456.57104492 -365.74259033 456.57104492 -365.47998047 458.17382812 C-359.4809308 494.17884832 -347.57425385 527.60306944 -331 560 C-330.55011719 560.88300781 -330.10023438 561.76601563 -329.63671875 562.67578125 C-320.1795802 581.01962777 -308.17126865 598.13741798 -295 614 C-294.32662598 614.82564453 -294.32662598 614.82564453 -293.63964844 615.66796875 C-286.37540945 624.54140673 -278.45524462 632.74998092 -270.375 640.875 C-269.89389771 641.36136932 -269.41279541 641.84773865 -268.91711426 642.34884644 C-262.29191493 649.03010774 -255.36359384 655.14150199 -248 661 C-246.81431094 661.98812503 -245.63150889 662.97973702 -244.453125 663.9765625 C-191.92442335 707.73697424 -119.07376278 735.8642523 -50.55859375 736.203125 C-49.60108215 736.21013931 -48.64357056 736.21715363 -47.65704346 736.22438049 C-44.58381381 736.24178089 -41.5107771 736.24823304 -38.4375 736.25 C-37.38543365 736.25067474 -36.33336731 736.25134949 -35.24942017 736.25204468 C-19.28802082 736.23578374 -3.76410161 735.70566044 12 733 C13.57104492 732.74259033 13.57104492 732.74259033 15.17382812 732.47998047 C71.70328406 723.06121019 124.15283991 699.59852396 169 664 C169.92167969 663.27296875 170.84335937 662.5459375 171.79296875 661.796875 C188.96123072 648.0226273 205.48759402 632.3941517 219 615 C219.90037875 613.90875445 220.80425103 612.82038531 221.7109375 611.734375 C242.17486675 587.05086807 277.41326238 541.23339794 275.45703125 507.75 C273.52228743 496.10846455 266.6767963 489.34190456 258 482 C256.51755282 480.73299497 255.03827352 479.4622721 253.5625 478.1875 C252.90378906 477.62417969 252.24507812 477.06085938 251.56640625 476.48046875 C250 475 250 475 249 473 C250.68222656 472.83951172 250.68222656 472.83951172 252.3984375 472.67578125 C257.32555926 472.05636546 261.90584965 470.69687904 266.625 469.1875 C267.44484375 468.93935547 268.2646875 468.69121094 269.109375 468.43554688 C275.73281243 466.34309437 281.01484505 463.52171327 285.6875 458.25 C286.24824219 457.63640625 286.80898438 457.0228125 287.38671875 456.390625 C291.55705288 450.21085626 292.58050444 443.61223477 293.16796875 436.3515625 C293.24734177 435.44080963 293.32671478 434.53005676 293.40849304 433.59170532 C294.22028941 423.52409297 294.35394327 413.4704248 294.3125 403.375 C294.31034485 402.41955292 294.3081897 401.46410583 294.30596924 400.47970581 C294.09734136 342.52758366 278.49523558 281.93424132 246.75585938 232.91967773 C243.98998366 228.54989727 243.98998366 228.54989727 244.0390625 225.85546875 C245.25781766 223.50218136 246.70757072 221.48512115 248.3125 219.375 C256.00847445 208.54070811 259.23889465 195.92189126 257.375 182.625 C256.94735725 180.41051874 256.48635845 178.20233081 256 176 C255.86287598 175.33178223 255.72575195 174.66356445 255.58447266 173.97509766 C251.87314631 155.89628374 245.78488898 139.47551963 230.15625 128.359375 C222.31464773 123.41575618 215.02692151 120.84237348 205.67871094 120.87646484 C194.52928748 120.87022217 194.52928748 120.87022217 190.19921875 118.40625 C188.25286748 116.37798816 186.63858135 114.28083937 185 112 C183.82645237 110.87907783 182.61621163 109.79550191 181.375 108.75 C178.91803225 106.64470655 176.47261762 104.53269031 174.05078125 102.38671875 C135.18057536 68.13687887 84.90058169 39.38789523 33 32 C31.76121094 31.81695312 30.52242188 31.63390625 29.24609375 31.4453125 C22.08914874 30.63258873 16.69153113 31.44926784 10 34 C8.29348402 34.56798965 6.58521517 35.13074771 4.875 35.6875 C3.58280836 36.12344701 2.29093133 36.56033498 1 37 C0.32195312 36.20335938 -0.35609375 35.40671875 -1.0546875 34.5859375 C-9.81638639 24.51656973 -18.93142414 17.2569701 -32.64108276 15.70007324 C-45.5813597 15.23710495 -58.018741 18.63263553 -70.5703125 21.40625 Z " fill="#FFFFFF" transform="translate(472,31)"/>
<path d="M0 0 C5.23042965 3.63855976 9.3145657 7.75826279 10.875 14 C1.635 19.61 -7.605 25.22 -17.125 31 C-11.33586448 35.18125856 -11.33586448 35.18125856 -5.08203125 34.6015625 C-0.13968413 33.082358 2.32304375 31.03031833 4.75 26.5 C6.07900612 22.97804101 6.07900612 22.97804101 5.875 19 C9.94642857 16 9.94642857 16 12.875 16 C15.46616044 20.72505728 15.08323978 24.91457288 13.875 30 C10.68525038 36.77821795 4.52339624 40.29224006 -2.0625 43.375 C-7.72824995 44.5312755 -13.55417998 45.16630892 -18.875 42.5 C-24.89141747 38.48432513 -28.98399328 31.77985462 -31.125 25 C-31.94379988 19.42003046 -31.29963186 14.78304839 -28.51953125 9.8515625 C-21.84080535 0.98401046 -10.63088422 -3.40188295 0 0 Z M-19.125 12 C-22.13498143 15.66841487 -22.45186175 18.31498158 -22.125 23 C-21.465 23.33 -20.805 23.66 -20.125 24 C-17.94465179 22.99961178 -17.94465179 22.99961178 -15.5546875 21.47265625 C-14.65878906 20.92802734 -13.76289062 20.38339844 -12.83984375 19.82226562 C-11.90269531 19.24154297 -10.96554687 18.66082031 -10 18.0625 C-9.05511719 17.48564453 -8.11023438 16.90878906 -7.13671875 16.31445312 C-4.79499881 14.88340205 -2.45811811 13.44501781 -0.125 12 C-2.58855386 9.34900182 -3.86464352 8.08511654 -7.375 6.9375 C-12.43617489 7.02185291 -15.304075 8.79007877 -19.125 12 Z " fill="#FFFFFF" transform="translate(653.125,759)"/>
<path d="M0 0 C2.18363063 0.97679425 4.30282384 2.0097505 6.41015625 3.140625 C7.07015625 3.470625 7.73015625 3.800625 8.41015625 4.140625 C6.98081398 9.33097403 4.62738472 13.15740886 1.59765625 17.515625 C0.6970827 18.83667144 -0.20266478 20.15828143 -1.1015625 21.48046875 C-1.53130371 22.10937012 -1.96104492 22.73827148 -2.40380859 23.38623047 C-4.56237069 26.57919614 -6.57775455 29.85421264 -8.58984375 33.140625 C-7.38125823 34.5645246 -7.38125823 34.5645246 -3.83984375 34.453125 C-0.69297146 34.40245979 0.39429513 34.1497892 3.22265625 32.515625 C6.71950632 28.71904492 8.27682792 25.68723363 8.72265625 20.515625 C8.43799886 17.44132515 8.05081951 15.70416134 6.41015625 13.140625 C7.73015625 11.160625 9.05015625 9.180625 10.41015625 7.140625 C13.94626927 8.66975496 15.79286382 10.23635809 17.34765625 13.703125 C19.25501623 19.68828909 17.97450936 25.0663741 15.17578125 30.56640625 C11.55190881 36.36265383 7.04961565 41.92747187 0.41015625 44.140625 C-7.85336448 45.05879397 -13.66395808 42.64638585 -20.58984375 38.140625 C-24.68083046 34.46803466 -27.22696731 31.15847087 -27.8984375 25.57421875 C-28.24486843 17.52232421 -26.69797986 12.40616014 -21.58984375 6.140625 C-15.20556399 -0.34939852 -9.1084593 -3.02241485 0 0 Z M-12.77734375 8.640625 C-16.00387975 11.508657 -18.26112037 13.99567659 -19.58984375 18.140625 C-19.7703974 22.41111125 -18.98793952 25.54348135 -16.58984375 29.140625 C-15.92984375 29.140625 -15.26984375 29.140625 -14.58984375 29.140625 C-13.16703272 27.3649205 -13.16703272 27.3649205 -11.76953125 25.0546875 C-11.23457031 24.20648437 -10.69960938 23.35828125 -10.1484375 22.484375 C-9.59285156 21.5871875 -9.03726563 20.69 -8.46484375 19.765625 C-7.90152344 18.87617187 -7.33820312 17.98671875 -6.7578125 17.0703125 C-3.77662938 12.90010453 -3.77662938 12.90010453 -2.58984375 8.140625 C-6.71467922 7.15066449 -8.88209103 6.8075649 -12.77734375 8.640625 Z " fill="#FFFFFF" transform="translate(755.58984375,657.859375)"/>
<path d="M0 0 C6.34353779 4.5990649 8.12903148 10.61131371 10.5 17.8125 C7.11236378 19.70986707 3.74622761 20.61569868 -0.015625 21.5390625 C-1.26601563 21.8484375 -2.51640625 22.1578125 -3.8046875 22.4765625 C-5.1197666 22.79697789 -6.4348711 23.11728908 -7.75 23.4375 C-9.08083632 23.76519011 -10.41156678 24.09331051 -11.7421875 24.421875 C-14.99377468 25.22299068 -18.24637923 26.01969136 -21.5 26.8125 C-19.69587357 30.07710973 -18.66605307 31.70179795 -15.5 33.8125 C-10.00095314 34.3717251 -6.01656313 33.82051566 -1.1328125 31.16796875 C1.6973256 28.81854788 1.9534778 26.36489427 2.5 22.8125 C6.46 22.3175 6.46 22.3175 10.5 21.8125 C11.77002058 26.13056996 11.29594094 28.70749213 9.5 32.8125 C5.97822662 38.72907928 0.33467227 40.66209832 -6 42.5625 C-13.51154446 43.31365445 -19.1076658 43.26055749 -25.5 38.8125 C-31.02089782 33.90503527 -32.46362534 28.01160256 -33.5 20.8125 C-33.62820688 15.47588881 -32.91976994 11.05773164 -29.5 6.8125 C-21.39971709 -1.09940424 -10.94726555 -3.71425081 0 0 Z M-21.5 10.8125 C-23.16356288 13.65257503 -24.5 16.45938789 -24.5 19.8125 C-21.6240849 19.19149527 -18.74931373 18.56583835 -15.875 17.9375 C-15.06675781 17.76347656 -14.25851562 17.58945312 -13.42578125 17.41015625 C-9.01437032 16.44179775 -4.75940436 15.3425773 -0.5 13.8125 C-1.74976756 10.15933329 -2.17098753 9.03184164 -5.5 6.8125 C-11.77155475 5.88418036 -16.75560823 6.29954198 -21.5 10.8125 Z " fill="#FFFFFF" transform="translate(558.5,798.1875)"/>
<path d="M0 0 C1.63098633 0.47566406 1.63098633 0.47566406 3.29492188 0.9609375 C11.28502801 3.34752801 11.28502801 3.34752801 13.5625 5.625 C12.9025 7.935 12.2425 10.245 11.5625 12.625 C10.5725 12.625 9.5825 12.625 8.5625 12.625 C9.0575 14.11 9.0575 14.11 9.5625 15.625 C10.24137329 23.94119775 7.91273167 32.17325004 2.5625 38.625 C0.17901638 40.73608549 -1.38899973 41.57916392 -4.58203125 41.71875 C-9.63252702 41.3837254 -12.85692836 40.42935736 -16.4375 36.625 C-19.70552351 26.82092947 -17.16190423 15.24149826 -14.4375 5.625 C-18.53489855 6.10278902 -18.53489855 6.10278902 -22.1875 7.8125 C-25.341728 12.3861306 -25.95151203 17.17647252 -25.4375 22.625 C-23.89487187 24.72858381 -22.75641683 25.46554159 -20.4375 26.625 C-21.0975 29.265 -21.7575 31.905 -22.4375 34.625 C-27.42493882 33.34914356 -30.09612518 31.53918193 -33.4375 27.625 C-36.11279749 19.59910754 -34.08928282 12.04024096 -30.4375 4.625 C-22.59435516 -7.00660906 -11.84875811 -3.6302578 0 0 Z M-8.4375 7.625 C-10.21520515 14.79931007 -11.48283627 22.24020503 -10.4375 29.625 C-9.18134926 31.50752159 -9.18134926 31.50752159 -7.4375 32.625 C-4.90035686 33.01991898 -4.90035686 33.01991898 -2.4375 31.625 C1.58082952 26.73819281 2.20086192 21.20491032 1.9453125 15.0546875 C1.69819359 12.46528517 1.69819359 12.46528517 -0.0625 10 C-2.87076381 8.37416306 -5.22220357 7.91729968 -8.4375 7.625 Z " fill="#FFFFFF" transform="translate(802.4375,572.375)"/>
<path d="M0 0 C2.02647925 4.90553243 4.03816564 9.81677171 6.03637695 14.73388672 C6.71821217 16.40578625 7.40406194 18.07605441 8.09399414 19.74462891 C9.08499017 22.14328163 10.06140236 24.54742999 11.03515625 26.953125 C11.34655045 27.69806213 11.65794464 28.44299927 11.97877502 29.21051025 C14.44365153 35.36838526 14.44365153 35.36838526 13 39 C10.32958984 40.45654297 10.32958984 40.45654297 7 41 C3.93212891 39.75830078 3.93212891 39.75830078 0.7265625 37.6953125 C0.15795502 37.33734589 -0.41065247 36.97937927 -0.99649048 36.61056519 C-2.80221924 35.46759069 -4.58812091 34.29717345 -6.375 33.125 C-7.59905955 32.34316879 -8.82430963 31.56319816 -10.05078125 30.78515625 C-13.0479477 28.87813203 -16.02800244 26.94607895 -19 25 C-19 27.36624542 -18.3631447 28.80190334 -17.46875 30.9921875 C-17.15292969 31.77980469 -16.83710937 32.56742188 -16.51171875 33.37890625 C-15.83995843 35.03626085 -15.16549952 36.69252434 -14.48828125 38.34765625 C-14.17246094 39.13785156 -13.85664062 39.92804687 -13.53125 40.7421875 C-13.23798828 41.4626123 -12.94472656 42.18303711 -12.64257812 42.92529297 C-12 45 -12 45 -12 49 C-14.31 49.66 -16.62 50.32 -19 51 C-20.65816736 47.03645379 -22.31203172 43.07114638 -23.9621582 39.10424805 C-24.52254015 37.75871999 -25.08403716 36.41365571 -25.64672852 35.0690918 C-28.69227507 27.78955875 -31.64159194 20.53863068 -34 13 C-31.3125 11.375 -31.3125 11.375 -28 10 C-24.15166574 11.15748348 -20.88998889 13.16257666 -17.48046875 15.2578125 C-16.45888672 15.88300781 -15.43730469 16.50820313 -14.38476562 17.15234375 C-13.32966797 17.80332031 -12.27457031 18.45429687 -11.1875 19.125 C-10.11306641 19.78371094 -9.03863281 20.44242188 -7.93164062 21.12109375 C-5.28563454 22.74397748 -2.64186151 24.37038123 0 26 C-1.82963273 20.45385125 -3.71310143 14.93379871 -5.6875 9.4375 C-6.12449219 8.21933594 -6.56148437 7.00117187 -7.01171875 5.74609375 C-7.50091797 4.38677734 -7.50091797 4.38677734 -8 3 C-2.25 0 -2.25 0 0 0 Z " fill="#FFFFFF" transform="translate(608,778)"/>
<path d="M0 0 C3.52678048 1.17559349 4.23515317 1.78176894 6 5 C6.25644141 7.69199145 6.35046752 10.14305409 6.29296875 12.828125 C6.28872391 13.57713074 6.28447906 14.32613647 6.28010559 15.09783936 C6.26335746 17.48226375 6.22571397 19.86583253 6.1875 22.25 C6.17244809 23.86977943 6.15876057 25.48957215 6.14648438 27.109375 C6.1134668 31.07324466 6.06171246 35.03647743 6 39 C6.97582031 38.14535156 7.95164062 37.29070313 8.95703125 36.41015625 C10.24198049 35.29403246 11.52714814 34.17816009 12.8125 33.0625 C13.45509766 32.49853516 14.09769531 31.93457031 14.75976562 31.35351562 C15.38173828 30.81533203 16.00371094 30.27714844 16.64453125 29.72265625 C17.21534424 29.22515869 17.78615723 28.72766113 18.37426758 28.21508789 C20 27 20 27 23 26 C24.32 27.65 25.64 29.3 27 31 C22.74658601 36.65138922 17.5114176 40.63400522 12 45 C10.70642578 46.05767578 10.70642578 46.05767578 9.38671875 47.13671875 C8.59910156 47.77222656 7.81148437 48.40773438 7 49.0625 C6.29875 49.63097656 5.5975 50.19945312 4.875 50.78515625 C3 52 3 52 0 52 C-2.60606227 49.60031665 -2.99305973 48.05591407 -3.43237305 44.51660156 C-3.47358585 43.14163926 -3.49918365 41.7661477 -3.51171875 40.390625 C-3.53864555 39.30041046 -3.53864555 39.30041046 -3.56611633 38.18817139 C-3.62013241 35.87550593 -3.6540856 33.56304579 -3.6875 31.25 C-3.72068093 29.6783569 -3.75517132 28.10674086 -3.79101562 26.53515625 C-3.87585328 22.69025254 -3.94270506 18.84540878 -4 15 C-4.67981934 15.54849609 -5.35963867 16.09699219 -6.06005859 16.66210938 C-6.95547363 17.38205078 -7.85088867 18.10199219 -8.7734375 18.84375 C-9.65950684 19.55724609 -10.54557617 20.27074219 -11.45849609 21.00585938 C-14.22369068 23.17551446 -17.03063002 25.12460843 -20 27 C-22.0625 25.25 -22.0625 25.25 -24 23 C-23.64446253 19.49467669 -22.93954094 18.94651699 -20.15625 16.484375 C-18.94443791 15.56371257 -17.72524724 14.65270541 -16.5 13.75 C-15.22480106 12.78226461 -13.95136694 11.81219941 -12.6796875 10.83984375 C-11.74141113 10.12417236 -11.74141113 10.12417236 -10.78417969 9.39404297 C-7.02287348 6.45520082 -3.50521226 3.23629386 0 0 Z " fill="#FFFFFF" transform="translate(685,725)"/>
<path d="M0 0 C4.25911847 1.6869858 7.1776993 4.76794425 10.4375 7.875 C11.55968804 8.93649432 12.68336299 9.99641913 13.80859375 11.0546875 C14.34774414 11.56185303 14.88689453 12.06901855 15.44238281 12.59155273 C16.82641569 13.84303952 18.28994929 15.00532116 19.76171875 16.15234375 C23.63418352 19.3489857 25.70885533 23.21956844 26.234375 28.23828125 C25.8719016 35.73371337 21.75190757 40.44945152 16.4375 45.375 C11.90769137 48.39487242 8.64178518 49.57893048 3.08984375 48.6484375 C-3.94094407 46.46692203 -9.52227713 39.80472546 -14.78808594 34.87158203 C-17.41987399 32.40765092 -20.06165249 30.09182358 -23 28 C-21.79618552 25.50638429 -20.54571278 23.31856917 -19 21 C-14.74088153 22.6869858 -11.8223007 25.76794425 -8.5625 28.875 C-1.35946482 36.64255022 -1.35946482 36.64255022 8 40 C12.29316628 37.76755353 15.16465539 35.53438081 17 31 C17.11428014 27.63122034 16.53757794 25.64316355 14.36791992 23.04736328 C12.17862368 20.87477922 9.92648134 18.80328237 7.625 16.75 C6.84382812 16.03070312 6.06265625 15.31140625 5.2578125 14.5703125 C2.25568567 11.82521708 -0.610164 9.25989067 -4 7 C-2.79618552 4.50638429 -1.54571278 2.31856917 0 0 Z " fill="#FFFFFF" transform="translate(715,693)"/>
<path d="M0 0 C-3.96 13.53 -7.92 27.06 -12 41 C-16.455 41.495 -16.455 41.495 -21 42 C-24.3568093 35.67882675 -27.68698013 29.34422684 -31 23 C-31.45310547 22.13600586 -31.90621094 21.27201172 -32.37304688 20.38183594 C-33.65566089 17.92678841 -34.92367027 15.46475965 -36.1875 13 C-36.58573975 12.24154785 -36.98397949 11.4830957 -37.39428711 10.70166016 C-38.34034431 8.83846546 -39.18016558 6.92207966 -40 5 C-39.67 4.01 -39.34 3.02 -39 2 C-36.69 2 -34.38 2 -32 2 C-30.39479066 5.04111749 -28.79102164 8.08299233 -27.1875 11.125 C-26.73568359 11.9809375 -26.28386719 12.836875 -25.81835938 13.71875 C-19 26.6587021 -19 26.6587021 -19 29 C-18.34 29 -17.68 29 -17 29 C-16.690625 27.1128125 -16.690625 27.1128125 -16.375 25.1875 C-14.68465594 16.59906068 -11.71930933 8.30630046 -9 0 C-5.32431536 -0.91892116 -3.83619425 -0.95904856 0 0 Z " fill="#FFFFFF" transform="translate(517,806)"/>
<path d="M0 0 C2.31 0.66 4.62 1.32 7 2 C4.91844171 8.71510089 2.33203028 15.09709126 -0.5625 21.5 C-1.16094727 22.85738281 -1.16094727 22.85738281 -1.77148438 24.2421875 C-2.15755859 25.10070312 -2.54363281 25.95921875 -2.94140625 26.84375 C-3.28888916 27.61912109 -3.63637207 28.39449219 -3.99438477 29.19335938 C-5 31 -5 31 -7 32 C-9.75085367 30.94442218 -12.39423903 29.82059342 -15.0703125 28.59765625 C-15.86654022 28.24110458 -16.66276794 27.88455292 -17.48312378 27.51719666 C-20.0337883 26.37296674 -22.57937089 25.21788297 -25.125 24.0625 C-26.84993752 23.28639132 -28.57519407 22.51099129 -30.30078125 21.73632812 C-34.53760441 19.832432 -38.76990034 17.91878532 -43 16 C-42.47731534 13.23723823 -41.89130413 10.6739124 -41 8 C-34.29761171 10.06274416 -27.98647925 12.68601555 -21.625 15.625 C-19.86775851 16.43093369 -18.10996965 17.23567527 -16.3515625 18.0390625 C-15.58666504 18.39178223 -14.82176758 18.74450195 -14.03369141 19.10791016 C-11.86847891 20.09467433 -11.86847891 20.09467433 -9 21 C-8.62875 19.7625 -8.2575 18.525 -7.875 17.25 C-5.87666889 11.19708401 -2.94698158 5.63645991 0 0 Z " fill="#FFFFFF" transform="translate(793,625)"/>
</svg>
